<svg width="183" height="20" viewBox="0 0 183 20" fill="none"
    xmlns="http://www.w3.org/2000/svg">
    <path d="M7.07867 15.6802C5.66697 15.6802 4.43005 15.3618 3.36792 14.7249C2.31922 14.088 1.49237 13.2088 0.887355 12.0873C0.295785 10.9519 0 9.64354 0 8.16206C0 6.68059 0.295785 5.3791 0.887355 4.25761C1.49237 3.12228 2.31922 2.23616 3.36792 1.59926C4.43005 0.962369 5.66697 0.643921 7.07867 0.643921C8.47693 0.643921 9.70713 0.962369 10.7693 1.59926C11.8314 2.23616 12.6583 3.12228 13.2498 4.25761C13.8414 5.3791 14.1372 6.68059 14.1372 8.16206C14.1372 9.64354 13.8414 10.9519 13.2498 12.0873C12.6583 13.2088 11.8314 14.088 10.7693 14.7249C9.70713 15.3618 8.47693 15.6802 7.07867 15.6802ZM7.07867 13.2918C8.42315 13.2918 9.49201 12.8349 10.2853 11.9211C11.0919 11.0073 11.4953 9.7543 11.4953 8.16206C11.4953 6.56982 11.0919 5.3168 10.2853 4.40299C9.49201 3.48918 8.42315 3.03228 7.07867 3.03228C5.7342 3.03228 4.65861 3.48918 3.85193 4.40299C3.04524 5.3168 2.6419 6.56982 2.6419 8.16206C2.6419 9.7543 3.04524 11.0073 3.85193 11.9211C4.65861 12.8349 5.7342 13.2918 7.07867 13.2918Z" fill="#2F2F2F"/>
    <path d="M16.255 20V5.12988H18.5541L18.8364 6.60444C19.1591 6.14753 19.5826 5.74601 20.107 5.39987C20.6448 5.05373 21.3372 4.88066 22.1842 4.88066C23.1253 4.88066 23.9656 5.11604 24.7051 5.58679C25.4445 6.05754 26.0294 6.70135 26.4596 7.51824C26.8899 8.33513 27.105 9.26278 27.105 10.3012C27.105 11.3396 26.8899 12.2673 26.4596 13.0842C26.0294 13.8872 25.4445 14.5241 24.7051 14.9948C23.9656 15.4518 23.1253 15.6802 22.1842 15.6802C21.4313 15.6802 20.7725 15.5348 20.2078 15.2441C19.6431 14.9533 19.186 14.5449 18.8364 14.0187V20H16.255ZM21.6397 13.3541C22.4598 13.3541 23.1388 13.0703 23.6766 12.5026C24.2144 11.935 24.4832 11.2012 24.4832 10.3012C24.4832 9.40124 24.2144 8.6605 23.6766 8.07899C23.1388 7.49747 22.4598 7.20672 21.6397 7.20672C20.8061 7.20672 20.1204 7.49747 19.5826 8.07899C19.0583 8.64666 18.7961 9.38047 18.7961 10.2804C18.7961 11.1804 19.0583 11.9211 19.5826 12.5026C20.1204 13.0703 20.8061 13.3541 21.6397 13.3541Z" fill="#2F2F2F"/>
    <path d="M34.1704 15.6802C33.1621 15.6802 32.268 15.4587 31.4882 15.0156C30.7084 14.5726 30.0967 13.9495 29.653 13.1465C29.2093 12.3434 28.9875 11.4158 28.9875 10.3635C28.9875 9.2974 29.2026 8.34898 29.6328 7.51824C30.0765 6.68751 30.6815 6.04369 31.4479 5.58679C32.2276 5.11604 33.1419 4.88066 34.1906 4.88066C35.1721 4.88066 36.0392 5.10219 36.7921 5.54525C37.5451 5.98831 38.1299 6.59751 38.5467 7.37286C38.9769 8.13437 39.192 8.98587 39.192 9.92737C39.192 10.0797 39.1853 10.2389 39.1719 10.405C39.1719 10.5712 39.1651 10.7443 39.1517 10.9243H31.5487C31.6025 11.7273 31.8714 12.3573 32.3554 12.8142C32.8528 13.2711 33.4511 13.4995 34.1503 13.4995C34.6746 13.4995 35.1116 13.3818 35.4611 13.1465C35.8241 12.8972 36.093 12.5788 36.2678 12.1911H38.8895C38.7013 12.8419 38.3854 13.4372 37.9417 13.9772C37.5114 14.5033 36.9737 14.9187 36.3283 15.2233C35.6964 15.5279 34.9771 15.6802 34.1704 15.6802ZM34.1906 7.04057C33.5587 7.04057 33.0007 7.22749 32.5167 7.60132C32.0327 7.9613 31.7235 8.51512 31.589 9.26278H36.5703C36.53 8.58435 36.288 8.04437 35.8443 7.64285C35.4006 7.24133 34.8494 7.04057 34.1906 7.04057Z" fill="#2F2F2F"/>
    <path d="M41.2623 15.431V5.12988H43.5412L43.7429 6.87442C44.0521 6.26522 44.4958 5.78062 45.0739 5.42064C45.6655 5.06066 46.3579 4.88066 47.1511 4.88066C48.3881 4.88066 49.3494 5.28218 50.035 6.08523C50.7207 6.88827 51.0636 8.06514 51.0636 9.61585V15.431H48.4822V9.86507C48.4822 8.97895 48.3074 8.30052 47.9578 7.82977C47.6083 7.35902 47.0637 7.12364 46.3243 7.12364C45.5983 7.12364 45 7.38671 44.5294 7.91284C44.0723 8.43897 43.8437 9.17279 43.8437 10.1143V15.431H41.2623Z" fill="#2F2F2F"/>
    <g clip-path="url(#clip0_1_15)">
        <path d="M58.5586 15.0535V0.670952H67.8046V3.13653H61.2707V6.5678H67.2293V9.03338H61.2707V12.5879H67.9279V15.0535H58.5586Z" fill="#2F2F2F"/>
        <path d="M70.4491 15.0535V0.670952H73.1613V12.5879H79.7362V15.0535H70.4491Z" fill="#2F2F2F"/>
        <path d="M82.0989 15.0535V0.670952H91.3449V3.13653H84.8111V6.5678H90.7696V9.03338H84.8111V12.5879H91.4682V15.0535H82.0989Z" fill="#2F2F2F"/>
        <path d="M99.4549 15.3411C97.6742 15.3411 96.2633 14.848 95.2223 13.8618C94.1812 12.8619 93.6607 11.4373 93.6607 9.58813V6.13632C93.6607 4.28714 94.1812 2.86943 95.2223 1.8832C96.2633 0.883266 97.6742 0.383301 99.4549 0.383301C101.222 0.383301 102.585 0.869568 103.544 1.8421C104.516 2.80094 105.002 4.12276 105.002 5.80758V5.93085H102.331V5.72539C102.331 4.87613 102.092 4.17755 101.612 3.62965C101.147 3.08174 100.427 2.80779 99.4549 2.80779C98.496 2.80779 97.7427 3.10229 97.1947 3.69129C96.6468 4.28029 96.3729 5.0816 96.3729 6.09523V9.62922C96.3729 10.6292 96.6468 11.4305 97.1947 12.0332C97.7427 12.6222 98.496 12.9167 99.4549 12.9167C100.427 12.9167 101.147 12.6427 101.612 12.0948C102.092 11.5332 102.331 10.8346 102.331 9.99906V9.62922H105.002V9.91687C105.002 11.6017 104.516 12.9304 103.544 13.9029C102.585 14.8617 101.222 15.3411 99.4549 15.3411Z" fill="#2F2F2F"/>
        <path d="M110.774 15.0535V3.13653H106.582V0.670952H117.677V3.13653H113.486V15.0535H110.774Z" fill="#2F2F2F"/>
        <path d="M120.038 15.0535V0.670952H126.284C127.188 0.670952 127.976 0.828475 128.647 1.14352C129.318 1.45857 129.839 1.90374 130.209 2.47904C130.578 3.05434 130.763 3.73238 130.763 4.51315V4.7597C130.763 5.62266 130.558 6.32124 130.147 6.85545C129.736 7.38966 129.229 7.78004 128.626 8.0266V8.39643C129.174 8.42383 129.599 8.6156 129.9 8.97174C130.202 9.31418 130.352 9.77305 130.352 10.3484V15.0535H127.64V10.7387C127.64 10.41 127.551 10.1429 127.373 9.93742C127.209 9.73196 126.928 9.62922 126.531 9.62922H122.75V15.0535H120.038ZM122.75 7.16364H125.996C126.64 7.16364 127.14 6.99242 127.496 6.64998C127.866 6.29384 128.051 5.82812 128.051 5.25282V5.04736C128.051 4.47205 127.873 4.01318 127.517 3.67074C127.161 3.3146 126.654 3.13653 125.996 3.13653H122.75V7.16364Z" fill="#2F2F2F"/>
        <path d="M133.534 15.0535V0.670952H136.246V15.0535H133.534Z" fill="#2F2F2F"/>
        <path d="M144.93 15.3411C143.15 15.3411 141.739 14.848 140.698 13.8618C139.657 12.8619 139.136 11.4373 139.136 9.58813V6.13632C139.136 4.28714 139.657 2.86943 140.698 1.8832C141.739 0.883266 143.15 0.383301 144.93 0.383301C146.697 0.383301 148.06 0.869568 149.019 1.8421C149.992 2.80094 150.478 4.12276 150.478 5.80758V5.93085H147.807V5.72539C147.807 4.87613 147.567 4.17755 147.088 3.62965C146.622 3.08174 145.903 2.80779 144.93 2.80779C143.971 2.80779 143.218 3.10229 142.67 3.69129C142.122 4.28029 141.848 5.0816 141.848 6.09523V9.62922C141.848 10.6292 142.122 11.4305 142.67 12.0332C143.218 12.6222 143.971 12.9167 144.93 12.9167C145.903 12.9167 146.622 12.6427 147.088 12.0948C147.567 11.5332 147.807 10.8346 147.807 9.99906V9.62922H150.478V9.91687C150.478 11.6017 149.992 12.9304 149.019 13.9029C148.06 14.8617 146.697 15.3411 144.93 15.3411Z" fill="#2F2F2F"/>
        <path d="M153.201 15.0535V0.670952H155.914V15.0535H153.201Z" fill="#2F2F2F"/>
        <path d="M162.461 15.0535V3.13653H158.27V0.670952H169.365V3.13653H165.173V15.0535H162.461Z" fill="#2F2F2F"/>
        <path d="M175.424 15.0535V10.1018L170.534 0.670952H173.554L176.595 6.8349H176.965L180.006 0.670952H183.026L178.136 10.1018V15.0535H175.424Z" fill="#2F2F2F"/>
    </g>
    <rect x="58.5312" y="12.5538" width="9.36856" height="2.4727" fill="#2F2F2F"/>
    <rect x="58.5312" y="0.643921" width="9.24938" height="2.4727" fill="#2F2F2F"/>
    <rect x="61.2422" y="6.47937" width="2.71182" height="2.71181" fill="#C74523"/>
    <rect x="58.5312" y="3.11664" width="2.71182" height="3.3627" fill="#2F2F2F"/>
    <rect x="58.5312" y="9.1911" width="2.71182" height="3.3627" fill="#2F2F2F"/>
    <defs>
        <clipPath id="clip0_1_15">
            <rect width="113.318" height="16.1881" fill="white" transform="translate(69.5117)"/>
        </clipPath>
    </defs>
</svg>
