<svg width="163" height="21" viewBox="0 0 163 21" fill="none" xmlns="http://www.w3.org/2000/svg">
<path d="M7.36015 16.3049C5.4439 16.3049 3.91961 15.7822 2.78728 14.737C1.65495 13.6773 1.08878 12.1675 1.08878 10.2077V6.54939C1.08878 4.58959 1.65495 3.08707 2.78728 2.04184C3.91961 0.982097 5.4439 0.452224 7.36015 0.452224C9.2764 0.452224 10.8007 0.982097 11.933 2.04184C13.0654 3.08707 13.6315 4.58959 13.6315 6.54939V10.2077C13.6315 12.1675 13.0654 13.6773 11.933 14.737C10.8007 15.7822 9.2764 16.3049 7.36015 16.3049ZM7.36015 13.7353C8.43441 13.7353 9.26915 13.4232 9.86434 12.799C10.4595 12.1748 10.7571 11.34 10.7571 10.2948V6.46229C10.7571 5.41706 10.4595 4.58233 9.86434 3.9581C9.26915 3.33386 8.43441 3.02175 7.36015 3.02175C6.30041 3.02175 5.46567 3.33386 4.85596 3.9581C4.26076 4.58233 3.96316 5.41706 3.96316 6.46229V10.2948C3.96316 11.34 4.26076 12.1748 4.85596 12.799C5.46567 13.4232 6.30041 13.7353 7.36015 13.7353ZM15.8043 20.3551V5.1993H18.5045V6.50584H18.8965C19.1432 6.08485 19.5279 5.71466 20.0506 5.39528C20.5732 5.06139 21.3208 4.89445 22.2934 4.89445C23.1645 4.89445 23.9702 5.1122 24.7105 5.54771C25.4509 5.96871 26.0461 6.59294 26.4961 7.42042C26.9462 8.24789 27.1712 9.24957 27.1712 10.4254V10.7739C27.1712 11.9497 26.9462 12.9514 26.4961 13.7789C26.0461 14.6064 25.4509 15.2379 24.7105 15.6734C23.9702 16.0944 23.1645 16.3049 22.2934 16.3049C21.6402 16.3049 21.0885 16.225 20.6385 16.0653C20.203 15.9202 19.8473 15.7314 19.5715 15.4992C19.3102 15.2524 19.0997 15.0056 18.94 14.7588H18.548V20.3551H15.8043ZM21.466 13.9095C22.3225 13.9095 23.0266 13.641 23.5782 13.1038C24.1444 12.5522 24.4275 11.7538 24.4275 10.7085V10.4908C24.4275 9.44555 24.1444 8.65437 23.5782 8.11723C23.012 7.56559 22.308 7.28976 21.466 7.28976C20.624 7.28976 19.9199 7.56559 19.3537 8.11723C18.7876 8.65437 18.5045 9.44555 18.5045 10.4908V10.7085C18.5045 11.7538 18.7876 12.5522 19.3537 13.1038C19.9199 13.641 20.624 13.9095 21.466 13.9095ZM34.1763 16.3049C33.102 16.3049 32.1512 16.0798 31.3237 15.6298C30.5107 15.1653 29.872 14.5193 29.4074 13.6918C28.9574 12.8498 28.7324 11.8626 28.7324 10.7303V10.469C28.7324 9.33667 28.9574 8.35677 29.4074 7.52929C29.8575 6.6873 30.489 6.04129 31.3019 5.59127C32.1149 5.12672 33.0585 4.89445 34.1327 4.89445C35.1925 4.89445 36.1143 5.13398 36.8982 5.61304C37.6822 6.07759 38.2919 6.73085 38.7274 7.57284C39.1629 8.40032 39.3807 9.3657 39.3807 10.469V11.4053H31.5197C31.5487 12.1457 31.8245 12.7482 32.3471 13.2127C32.8697 13.6773 33.5085 13.9095 34.2634 13.9095C35.0328 13.9095 35.599 13.7426 35.9619 13.4087C36.3248 13.0748 36.6006 12.7046 36.7894 12.2981L39.0322 13.474C38.829 13.8515 38.5314 14.2652 38.1394 14.7152C37.762 15.1508 37.2539 15.5282 36.6152 15.8476C35.9764 16.1524 35.1634 16.3049 34.1763 16.3049ZM31.5414 9.35844H36.5934C36.5353 8.73421 36.2813 8.23337 35.8312 7.85593C35.3957 7.47848 34.8223 7.28976 34.111 7.28976C33.3706 7.28976 32.7826 7.47848 32.3471 7.85593C31.9116 8.23337 31.6431 8.73421 31.5414 9.35844ZM41.3872 16V5.1993H44.0874V6.61472H44.4794C44.6536 6.23727 44.9802 5.88161 45.4593 5.54771C45.9383 5.1993 46.6642 5.0251 47.6368 5.0251C48.4788 5.0251 49.2119 5.22108 49.8362 5.61304C50.4749 5.99048 50.9685 6.52036 51.3169 7.20266C51.6653 7.87044 51.8395 8.65437 51.8395 9.55442V16H49.0958V9.77218C49.0958 8.95922 48.8926 8.34951 48.4861 7.94303C48.0941 7.53655 47.528 7.33331 46.7876 7.33331C45.9456 7.33331 45.2923 7.6164 44.8278 8.18256C44.3632 8.73421 44.131 9.51087 44.131 10.5126V16H41.3872Z" fill="black"/>
<path d="M59.4372 16V0.757083H64.7722L67.4071 14.0402H67.799L70.4339 0.757083H75.7689V16H72.9816V2.86932H72.5896L69.9766 16H65.2295L62.6164 2.86932H62.2245V16H59.4372ZM83.2126 16.3049C82.1383 16.3049 81.1874 16.0798 80.36 15.6298C79.547 15.1653 78.9083 14.5193 78.4437 13.6918C77.9937 12.8498 77.7687 11.8626 77.7687 10.7303V10.469C77.7687 9.33667 77.9937 8.35677 78.4437 7.52929C78.8937 6.6873 79.5252 6.04129 80.3382 5.59127C81.1511 5.12672 82.0948 4.89445 83.169 4.89445C84.2288 4.89445 85.1506 5.13398 85.9345 5.61304C86.7184 6.07759 87.3282 6.73085 87.7637 7.57284C88.1992 8.40032 88.4169 9.3657 88.4169 10.469V11.4053H80.5559C80.585 12.1457 80.8608 12.7482 81.3834 13.2127C81.906 13.6773 82.5448 13.9095 83.2997 13.9095C84.0691 13.9095 84.6352 13.7426 84.9982 13.4087C85.3611 13.0748 85.6369 12.7046 85.8256 12.2981L88.0685 13.474C87.8653 13.8515 87.5677 14.2652 87.1757 14.7152C86.7983 15.1508 86.2902 15.5282 85.6514 15.8476C85.0127 16.1524 84.1997 16.3049 83.2126 16.3049ZM80.5777 9.35844H85.6297C85.5716 8.73421 85.3175 8.23337 84.8675 7.85593C84.432 7.47848 83.8586 7.28976 83.1472 7.28976C82.4069 7.28976 81.8189 7.47848 81.3834 7.85593C80.9479 8.23337 80.6793 8.73421 80.5777 9.35844ZM94.1994 16C93.488 16 92.9074 15.7822 92.4573 15.3467C92.0218 14.8967 91.8041 14.3015 91.8041 13.5611V7.46397H89.1039V5.1993H91.8041V1.84586H94.5478V5.1993H97.5093V7.46397H94.5478V13.0821C94.5478 13.5176 94.751 13.7353 95.1575 13.7353H97.248V16H94.1994ZM99.5574 16V0.757083H102.301V6.52762H102.693C102.809 6.29534 102.991 6.06307 103.237 5.8308C103.484 5.59852 103.811 5.4098 104.217 5.26463C104.638 5.10494 105.168 5.0251 105.807 5.0251C106.649 5.0251 107.382 5.22108 108.006 5.61304C108.645 5.99048 109.139 6.52036 109.487 7.20266C109.835 7.87044 110.01 8.65437 110.01 9.55442V16H107.266V9.77218C107.266 8.95922 107.063 8.34951 106.656 7.94303C106.264 7.53655 105.698 7.33331 104.958 7.33331C104.116 7.33331 103.462 7.6164 102.998 8.18256C102.533 8.73421 102.301 9.51087 102.301 10.5126V16H99.5574ZM115.894 16.3049C115.124 16.3049 114.435 16.1742 113.825 15.9129C113.215 15.6371 112.729 15.2451 112.366 14.737C112.018 14.2144 111.843 13.5829 111.843 12.8425C111.843 12.1022 112.018 11.4852 112.366 10.9916C112.729 10.4835 113.223 10.1061 113.847 9.85928C114.485 9.59797 115.211 9.46732 116.024 9.46732H118.986V8.8576C118.986 8.34951 118.826 7.93577 118.507 7.6164C118.187 7.2825 117.679 7.11556 116.982 7.11556C116.3 7.11556 115.792 7.27524 115.458 7.59462C115.124 7.89948 114.906 8.2987 114.805 8.79228L112.279 7.94303C112.453 7.39138 112.729 6.89054 113.106 6.44051C113.498 5.97597 114.014 5.60578 114.652 5.32996C115.306 5.03962 116.097 4.89445 117.026 4.89445C118.449 4.89445 119.574 5.25011 120.401 5.96145C121.229 6.67279 121.642 7.7035 121.642 9.05359V13.0821C121.642 13.5176 121.846 13.7353 122.252 13.7353H123.123V16H121.294C120.757 16 120.314 15.8693 119.966 15.608C119.617 15.3467 119.443 14.9983 119.443 14.5628V14.541H119.029C118.971 14.7152 118.841 14.9475 118.637 15.2379C118.434 15.5137 118.115 15.7605 117.679 15.9782C117.244 16.196 116.649 16.3049 115.894 16.3049ZM116.373 14.0837C117.142 14.0837 117.766 13.8733 118.245 13.4523C118.739 13.0167 118.986 12.4433 118.986 11.732V11.5142H116.22C115.712 11.5142 115.313 11.6231 115.023 11.8409C114.732 12.0586 114.587 12.3635 114.587 12.7554C114.587 13.1474 114.74 13.4668 115.044 13.7136C115.349 13.9604 115.792 14.0837 116.373 14.0837ZM124.694 16V5.1993H127.394V6.61472H127.786C127.96 6.23727 128.287 5.88161 128.766 5.54771C129.245 5.1993 129.971 5.0251 130.943 5.0251C131.785 5.0251 132.518 5.22108 133.143 5.61304C133.781 5.99048 134.275 6.52036 134.623 7.20266C134.972 7.87044 135.146 8.65437 135.146 9.55442V16H132.402V9.77218C132.402 8.95922 132.199 8.34951 131.793 7.94303C131.401 7.53655 130.834 7.33331 130.094 7.33331C129.252 7.33331 128.599 7.6164 128.134 8.18256C127.67 8.73421 127.437 9.51087 127.437 10.5126V16H124.694ZM142.598 16.3049C141.524 16.3049 140.573 16.0798 139.745 15.6298C138.932 15.1653 138.294 14.5193 137.829 13.6918C137.379 12.8498 137.154 11.8626 137.154 10.7303V10.469C137.154 9.33667 137.379 8.35677 137.829 7.52929C138.279 6.6873 138.911 6.04129 139.723 5.59127C140.536 5.12672 141.48 4.89445 142.554 4.89445C143.614 4.89445 144.536 5.13398 145.32 5.61304C146.104 6.07759 146.713 6.73085 147.149 7.57284C147.584 8.40032 147.802 9.3657 147.802 10.469V11.4053H139.941C139.97 12.1457 140.246 12.7482 140.769 13.2127C141.291 13.6773 141.93 13.9095 142.685 13.9095C143.454 13.9095 144.021 13.7426 144.383 13.4087C144.746 13.0748 145.022 12.7046 145.211 12.2981L147.454 13.474C147.251 13.8515 146.953 14.2652 146.561 14.7152C146.184 15.1508 145.675 15.5282 145.037 15.8476C144.398 16.1524 143.585 16.3049 142.598 16.3049ZM139.963 9.35844H145.015C144.957 8.73421 144.703 8.23337 144.253 7.85593C143.817 7.47848 143.244 7.28976 142.533 7.28976C141.792 7.28976 141.204 7.47848 140.769 7.85593C140.333 8.23337 140.065 8.73421 139.963 9.35844Z" fill="black"/>
<rect x="155" y="7.5" width="6" height="6" stroke="black" stroke-width="2.67"/>
</svg>
