<svg width="121" height="17" viewBox="0 0 121 17" fill="none"
    xmlns="http://www.w3.org/2000/svg">
    <path d="M60.2188 12.484V0.809326H67.5066V2.81071H62.3565V5.59596H67.0532V7.59734H62.3565V10.4827H67.6038V12.484H60.2188Z" fill="#2F2F2F"/>
    <path d="M72.3767 12.484V2.81071H69.0729V0.809326H77.8183V2.81071H74.5145V12.484H72.3767Z" fill="#2F2F2F"/>
    <path d="M79.8409 12.484V0.809326H81.9787V5.62931H86.1895V0.809326H88.3273V12.484H86.1895V7.63069H81.9787V12.484H79.8409Z" fill="#2F2F2F"/>
    <path d="M90.2586 12.484L93.2385 0.809326H96.9634L99.9433 12.484H97.7408L97.1254 9.9156H93.0765L92.4611 12.484H90.2586ZM93.5786 7.88087H96.6233L95.2467 2.19361H94.9552L93.5786 7.88087Z" fill="#2F2F2F"/>
    <path d="M101.867 12.484V0.809326H105.932L108.183 10.983H108.475V0.809326H110.58V12.484H106.515L104.264 2.31036H103.973V12.484H101.867Z" fill="#2F2F2F"/>
    <path d="M113.284 12.484V0.809326H120.571V2.81071H115.421V5.59596H120.118V7.59734H115.421V10.4827H120.669V12.484H113.284Z" fill="#2F2F2F"/>
    <path d="M5.68454 12.8782C4.55087 12.8782 3.55756 12.6225 2.70461 12.111C1.86246 11.5996 1.19845 10.8935 0.712592 9.99289C0.237531 9.08115 0 8.03043 0 6.84072C0 5.65101 0.237531 4.60584 0.712592 3.70522C1.19845 2.79348 1.86246 2.08188 2.70461 1.57042C3.55756 1.05895 4.55087 0.803223 5.68454 0.803223C6.80741 0.803223 7.79533 1.05895 8.64828 1.57042C9.50123 2.08188 10.1652 2.79348 10.6403 3.70522C11.1154 4.60584 11.3529 5.65101 11.3529 6.84072C11.3529 8.03043 11.1154 9.08115 10.6403 9.99289C10.1652 10.8935 9.50123 11.5996 8.64828 12.111C7.79533 12.6225 6.80741 12.8782 5.68454 12.8782ZM5.68454 10.9602C6.76423 10.9602 7.62257 10.5933 8.25959 9.85946C8.9074 9.12563 9.23131 8.11938 9.23131 6.84072C9.23131 5.56206 8.9074 4.55581 8.25959 3.82197C7.62257 3.08813 6.76423 2.72121 5.68454 2.72121C4.60486 2.72121 3.74111 3.08813 3.0933 3.82197C2.44549 4.55581 2.12158 5.56206 2.12158 6.84072C2.12158 8.11938 2.44549 9.12563 3.0933 9.85946C3.74111 10.5933 4.60486 10.9602 5.68454 10.9602Z" fill="#2F2F2F"/>
    <path d="M13.0536 16.3473V4.40571H14.8999L15.1266 5.58986C15.3858 5.22294 15.7259 4.90049 16.1469 4.62252C16.5788 4.34455 17.1349 4.20557 17.8151 4.20557C18.5708 4.20557 19.2456 4.39459 19.8395 4.77262C20.4333 5.15066 20.903 5.66769 21.2485 6.32369C21.594 6.9797 21.7667 7.72466 21.7667 8.55857C21.7667 9.39248 21.594 10.1374 21.2485 10.7934C20.903 11.4383 20.4333 11.9498 19.8395 12.3278C19.2456 12.6948 18.5708 12.8782 17.8151 12.8782C17.2104 12.8782 16.6814 12.7615 16.2279 12.528C15.7745 12.2945 15.4074 11.9665 15.1266 11.544V16.3473H13.0536ZM17.3778 11.0103C18.0364 11.0103 18.5816 10.7823 19.0135 10.3265C19.4454 9.87058 19.6613 9.28129 19.6613 8.55857C19.6613 7.83585 19.4454 7.24099 19.0135 6.774C18.5816 6.30702 18.0364 6.07352 17.3778 6.07352C16.7084 6.07352 16.1577 6.30702 15.7259 6.774C15.3048 7.22987 15.0942 7.81917 15.0942 8.54189C15.0942 9.26461 15.3048 9.85946 15.7259 10.3265C16.1577 10.7823 16.7084 11.0103 17.3778 11.0103Z" fill="#2F2F2F"/>
    <path d="M27.4406 12.8782C26.6309 12.8782 25.9129 12.7003 25.2866 12.3445C24.6604 11.9887 24.1692 11.4884 23.8129 10.8435C23.4566 10.1986 23.2784 9.45363 23.2784 8.6086C23.2784 7.75246 23.4512 6.99082 23.7967 6.32369C24.153 5.65657 24.6388 5.13954 25.2543 4.77262C25.8805 4.39459 26.6147 4.20557 27.4568 4.20557C28.245 4.20557 28.9414 4.38347 29.546 4.73927C30.1506 5.09507 30.6203 5.58429 30.955 6.20695C31.3005 6.81848 31.4732 7.50228 31.4732 8.25836C31.4732 8.38067 31.4678 8.50853 31.457 8.64196C31.457 8.77538 31.4516 8.91437 31.4408 9.05891H25.3352C25.3784 9.7038 25.5944 10.2097 25.983 10.5766C26.3825 10.9435 26.863 11.127 27.4244 11.127C27.8455 11.127 28.1964 11.0325 28.4771 10.8435C28.7686 10.6433 28.9846 10.3876 29.1249 10.0763H31.2303C31.0792 10.5989 30.8254 11.077 30.4691 11.5106C30.1236 11.9331 29.6918 12.2667 29.1735 12.5113C28.6661 12.7559 28.0884 12.8782 27.4406 12.8782ZM27.4568 5.9401C26.9494 5.9401 26.5013 6.0902 26.1126 6.39041C25.7239 6.67949 25.4756 7.12425 25.3676 7.72466H29.3679C29.3355 7.17984 29.1411 6.74621 28.7848 6.42376C28.4285 6.10132 27.9859 5.9401 27.4568 5.9401Z" fill="#2F2F2F"/>
    <path d="M33.1358 12.6781V4.40571H34.9658L35.1278 5.80667C35.3761 5.31744 35.7324 4.92829 36.1967 4.6392C36.6717 4.35011 37.2278 4.20557 37.8648 4.20557C38.8581 4.20557 39.6301 4.52801 40.1807 5.1729C40.7314 5.81779 41.0067 6.76289 41.0067 8.00819V12.6781H38.9337V8.20833C38.9337 7.49672 38.7933 6.9519 38.5126 6.57387C38.2319 6.19583 37.7946 6.00681 37.2008 6.00681C36.6178 6.00681 36.1373 6.21807 35.7594 6.64058C35.3923 7.06309 35.2088 7.65239 35.2088 8.40846V12.6781H33.1358Z" fill="#2F2F2F"/>
    <rect x="46.9922" y="0.797363" width="2.26523" height="2.33277" fill="#2F2F2F"/>
    <rect x="56.0508" y="3.12695" width="2.26523" height="2.33277" fill="#2F2F2F"/>
    <rect x="46.9922" y="3.12671" width="2.26523" height="2.33277" fill="#2F2F2F"/>
    <rect x="56.0508" y="5.46826" width="2.26523" height="2.33277" fill="#2F2F2F"/>
    <rect x="46.9922" y="5.46826" width="2.26523" height="2.33277" fill="#2F2F2F"/>
    <rect x="56.0508" y="7.79175" width="2.26523" height="2.33277" fill="#2F2F2F"/>
    <rect x="46.9922" y="7.79175" width="2.26523" height="2.33277" fill="#2F2F2F"/>
    <rect x="56.0508" y="10.1272" width="2.26523" height="2.33277" fill="#2F2F2F"/>
    <rect x="46.9922" y="10.1272" width="2.26523" height="2.33277" fill="#2F2F2F"/>
    <rect x="56.0508" y="0.797363" width="2.26523" height="2.33277" fill="#2F2F2F"/>
    <rect x="49.2617" y="3.12671" width="2.26523" height="2.33277" fill="#2F2F2F"/>
    <rect x="51.5273" y="5.46826" width="2.26523" height="2.33277" fill="#F196CD"/>
    <rect x="53.7891" y="3.12695" width="2.26523" height="2.33277" fill="#2F2F2F"/>
</svg>
