<svg width="111" height="35" viewBox="0 0 111 35" fill="none" xmlns="http://www.w3.org/2000/svg">
<path d="M30.9347 19.5197L32.3471 18.1492C33.0882 19.198 34.165 19.7853 35.2697 19.7853C36.3186 19.7853 37.0877 19.3239 37.0877 18.4708C37.0877 17.5479 36.1368 17.422 34.6265 17.0864C33.1302 16.7368 31.508 16.2614 31.508 14.2756C31.508 12.3598 33.1582 11.1572 35.2418 11.1572C36.9758 11.1572 38.3323 11.9263 39.0315 12.9332L37.675 14.2616C37.0877 13.4366 36.3046 12.8772 35.1858 12.8772C34.207 12.8772 33.5357 13.3527 33.5357 14.0799C33.5357 14.863 34.2629 15.0168 35.5774 15.3104C37.1716 15.6601 39.1293 16.0656 39.1293 18.2611C39.1293 20.2888 37.3394 21.5054 35.1998 21.5054C33.5078 21.5054 31.7458 20.7363 30.9347 19.5197ZM46.5927 13.9959V21.3516H44.6349V20.5964C44.2294 21.0719 43.5861 21.5054 42.6492 21.5054C41.1249 21.5054 40.146 20.4566 40.146 18.8624V13.9959H42.1038V18.4289C42.1038 19.24 42.4674 19.7714 43.2785 19.7714C43.9637 19.7714 44.6349 19.2679 44.6349 18.317V13.9959H46.5927ZM52.2316 21.5054C51.3087 21.5054 50.6095 21.1418 50.176 20.5964V23.8407H48.2182V13.9959H50.176V14.7511C50.6095 14.2197 51.3087 13.8561 52.2316 13.8561C54.2593 13.8561 55.434 15.5901 55.434 17.6738C55.434 19.7714 54.2593 21.5054 52.2316 21.5054ZM50.134 17.478V17.8835C50.134 19.1281 50.8332 19.8273 51.7702 19.8273C52.8749 19.8273 53.4622 18.9463 53.4622 17.6738C53.4622 16.4152 52.8749 15.5342 51.7702 15.5342C50.8332 15.5342 50.134 16.2194 50.134 17.478ZM59.8332 21.5054C57.6657 21.5054 56.1833 19.9532 56.1833 17.6738C56.1833 15.5062 57.6796 13.8561 59.7633 13.8561C61.9448 13.8561 63.1194 15.4783 63.1194 17.5339V18.1073H58.0572C58.197 19.226 58.8823 19.8972 59.8472 19.8972C60.6023 19.8972 61.2036 19.5336 61.4274 18.8204L63.0775 19.4078C62.5461 20.7502 61.3015 21.5054 59.8332 21.5054ZM59.7493 15.4223C58.9662 15.4223 58.3649 15.8838 58.1271 16.7788H61.1757C61.1617 16.0516 60.7002 15.4223 59.7493 15.4223ZM68.669 13.982V15.8978C68.4453 15.8698 68.2775 15.8558 68.0397 15.8558C67.0189 15.8558 66.2358 16.4851 66.2358 17.6178V21.3516H64.278V13.9959H66.2358V15.0308C66.5574 14.3875 67.2846 13.954 68.1936 13.954C68.3893 13.954 68.5292 13.968 68.669 13.982ZM73.754 21.5054C72.831 21.5054 72.1318 21.1418 71.6983 20.5964V23.8407H69.7406V13.9959H71.6983V14.7511C72.1318 14.2197 72.831 13.8561 73.754 13.8561C75.7817 13.8561 76.9563 15.5901 76.9563 17.6738C76.9563 19.7714 75.7817 21.5054 73.754 21.5054ZM71.6564 17.478V17.8835C71.6564 19.1281 72.3556 19.8273 73.2925 19.8273C74.3973 19.8273 74.9846 18.9463 74.9846 17.6738C74.9846 16.4152 74.3973 15.5342 73.2925 15.5342C72.3556 15.5342 71.6564 16.2194 71.6564 17.478ZM84.9215 17.6738C84.9215 19.9671 83.4391 21.5054 81.3136 21.5054C79.188 21.5054 77.7057 19.9671 77.7057 17.6738C77.7057 15.3944 79.188 13.8561 81.3136 13.8561C83.4391 13.8561 84.9215 15.3944 84.9215 17.6738ZM79.6495 17.6738C79.6495 19.0722 80.2927 19.8832 81.3136 19.8832C82.3344 19.8832 82.9637 19.0722 82.9637 17.6738C82.9637 16.2893 82.3344 15.4783 81.3136 15.4783C80.2927 15.4783 79.6495 16.2893 79.6495 17.6738ZM89.5728 13.9959H91.0971L92.3137 18.5967L93.5443 13.9959H95.4601L93.2366 21.3516H91.5445L90.3 16.9046L89.0554 21.3516H87.3633L85.1398 13.9959H87.1256L88.3702 18.5967L89.5728 13.9959ZM99.3272 21.5054C97.1597 21.5054 95.6774 19.9532 95.6774 17.6738C95.6774 15.5062 97.1737 13.8561 99.2573 13.8561C101.439 13.8561 102.613 15.4783 102.613 17.5339V18.1073H97.5512C97.6911 19.226 98.3763 19.8972 99.3412 19.8972C100.096 19.8972 100.698 19.5336 100.921 18.8204L102.572 19.4078C102.04 20.7502 100.796 21.5054 99.3272 21.5054ZM99.2433 15.4223C98.4602 15.4223 97.8589 15.8838 97.6212 16.7788H100.67C100.656 16.0516 100.194 15.4223 99.2433 15.4223ZM108.163 13.982V15.8978C107.939 15.8698 107.772 15.8558 107.534 15.8558C106.513 15.8558 105.73 16.4851 105.73 17.6178V21.3516H103.772V13.9959H105.73V15.0308C106.051 14.3875 106.779 13.954 107.688 13.954C107.883 13.954 108.023 13.968 108.163 13.982Z" fill="black"/>
<path d="M38.9184 2.42432H36.0342V10.0002H34.1499V2.42432H31.2528V0.796342H38.9184V2.42432ZM39.7531 10.0002V0.796342H41.5478V3.94975C41.9195 3.51391 42.5348 3.12935 43.3937 3.12935C44.8037 3.12935 45.6626 4.09075 45.6626 5.55209V10.0002H43.8679V6.06484C43.8679 5.30853 43.5603 4.77015 42.7912 4.77015C42.1631 4.77015 41.5478 5.2188 41.5478 6.10329V10.0002H39.7531ZM50.0497 10.1412C48.0628 10.1412 46.704 8.71831 46.704 6.62886C46.704 4.64196 48.0756 3.12935 49.9856 3.12935C51.9853 3.12935 53.0621 4.61632 53.0621 6.50067V7.02624H48.4217C48.5499 8.05174 49.178 8.66704 50.0625 8.66704C50.7547 8.66704 51.3059 8.33375 51.511 7.67999L53.0236 8.21838C52.5365 9.44898 51.3956 10.1412 50.0497 10.1412ZM49.9728 4.56505C49.2549 4.56505 48.7037 4.98806 48.4858 5.80846H51.2803C51.2675 5.14189 50.8444 4.56505 49.9728 4.56505Z" fill="black"/>
<path d="M33.9972 23.6391V33.6797H31.9415V23.6391H33.9972ZM35.6817 33.6797V26.3241H37.6395V27.0792C38.045 26.6038 38.7163 26.1842 39.6532 26.1842C41.1915 26.1842 42.1284 27.233 42.1284 28.8272V33.6797H40.1706V29.3866C40.1706 28.5615 39.835 27.9742 38.996 27.9742C38.3107 27.9742 37.6395 28.4636 37.6395 29.4285V33.6797H35.6817ZM42.9708 32.4351L44.1874 31.1905C44.6909 31.8757 45.5858 32.3092 46.4109 32.3092C47.0681 32.3092 47.6415 32.0855 47.6415 31.5541C47.6415 30.9947 47.0961 30.9248 45.9214 30.7011C44.7328 30.4634 43.4183 30.1557 43.4183 28.5755C43.4183 27.1631 44.6629 26.1842 46.4249 26.1842C47.7254 26.1842 48.8861 26.7156 49.4594 27.4568L48.3407 28.6874C47.8512 28.0581 47.1381 27.7085 46.3689 27.7085C45.7536 27.7085 45.3481 27.9742 45.3481 28.3797C45.3481 28.8552 45.8375 28.9391 46.7465 29.1209C48.033 29.3866 49.5573 29.6802 49.5573 31.3443C49.5573 32.8826 48.1309 33.8335 46.3689 33.8335C45.0405 33.8335 43.642 33.3441 42.9708 32.4351ZM50.8858 31.7639V27.9602H49.9069V26.3241H50.8858V24.2265H52.8156V26.3241H54.3119V27.9602H52.8156V31.3583C52.8156 31.9876 53.1652 32.0715 53.7385 32.0715C54.0182 32.0715 54.1581 32.0575 54.4098 32.0296V33.6517C54.0602 33.7216 53.6406 33.7636 53.1512 33.7636C51.6689 33.7636 50.8858 33.2741 50.8858 31.7639ZM55.551 25.4571V23.6391H57.5507V25.4571H55.551ZM57.5367 26.3241V33.6797H55.579V26.3241H57.5367ZM59.339 31.7639V27.9602H58.3602V26.3241H59.339V24.2265H61.2688V26.3241H62.7651V27.9602H61.2688V31.3583C61.2688 31.9876 61.6184 32.0715 62.1918 32.0715C62.4715 32.0715 62.6113 32.0575 62.863 32.0296V33.6517C62.5134 33.7216 62.0939 33.7636 61.6045 33.7636C60.1221 33.7636 59.339 33.2741 59.339 31.7639ZM70.3683 26.3241V33.6797H68.4105V32.9245C68.005 33.4 67.3617 33.8335 66.4248 33.8335C64.9005 33.8335 63.9217 32.7847 63.9217 31.1905V26.3241H65.8794V30.757C65.8794 31.5681 66.243 32.0995 67.0541 32.0995C67.7393 32.0995 68.4105 31.5961 68.4105 30.6451V26.3241H70.3683ZM72.1896 31.7639V27.9602H71.2107V26.3241H72.1896V24.2265H74.1194V26.3241H75.6157V27.9602H74.1194V31.3583C74.1194 31.9876 74.469 32.0715 75.0424 32.0715C75.3221 32.0715 75.4619 32.0575 75.7136 32.0296V33.6517C75.364 33.7216 74.9445 33.7636 74.455 33.7636C72.9727 33.7636 72.1896 33.2741 72.1896 31.7639ZM80.0445 33.8335C77.877 33.8335 76.3947 32.2813 76.3947 30.0019C76.3947 27.8344 77.891 26.1842 79.9746 26.1842C82.1561 26.1842 83.3308 27.8064 83.3308 29.862V30.4354H78.2685C78.4084 31.5541 79.0936 32.2253 80.0585 32.2253C80.8136 32.2253 81.415 31.8618 81.6387 31.1486L83.2888 31.7359C82.7574 33.0784 81.5128 33.8335 80.0445 33.8335ZM79.9606 27.7504C79.1775 27.7504 78.5762 28.2119 78.3385 29.1069H81.387C81.373 28.3797 80.9115 27.7504 79.9606 27.7504Z" fill="black"/>
<path d="M0.986328 28.1032C0.986328 27.5587 1.4278 27.1172 1.97238 27.1172H17.7493V33.5265H1.97238C1.4278 33.5265 0.986328 33.0851 0.986328 32.5405V28.1032Z" fill="black"/>
<path d="M19.2275 13.8047H22.6787C24.3125 13.8047 25.6369 15.1291 25.6369 16.7629V32.5397C25.6369 33.0843 25.1954 33.5258 24.6508 33.5258H19.2275V13.8047Z" fill="black"/>
<path d="M25.6369 4.19101C25.6369 5.9609 24.2021 7.39569 22.4322 7.39569C20.6623 7.39569 19.2275 5.9609 19.2275 4.19101C19.2275 2.42111 20.6623 0.986328 22.4322 0.986328C24.2021 0.986328 25.6369 2.42111 25.6369 4.19101Z" fill="black"/>
<path fill-rule="evenodd" clip-rule="evenodd" d="M19.0157 0.990234H8.8745C3.97325 0.990234 0 4.96348 0 9.86473V11.8368C0 16.7381 3.97324 20.7113 8.87449 20.7113H17.749V13.8097H9.12168C7.35178 13.8097 5.91699 12.375 5.91699 10.6051C5.91699 8.83517 7.35178 7.40039 9.12167 7.40039H19.019C18.2315 6.56236 17.749 5.43429 17.749 4.19353C17.749 2.95453 18.2301 1.8279 19.0157 0.990234Z" fill="black"/>
</svg>
