<svg width="99" height="30" viewBox="0 0 99 30" fill="none"
    xmlns="http://www.w3.org/2000/svg">
    <g clip-path="url(#clip0_8547_122511)">
        <path d="M34.0595 0.65625V1.94005H31.8952V8.58628H30.2659V1.94005H28.1016V0.65625H34.0595Z" fill="#272727"/>
        <path d="M38.8727 2.19415C39.3616 2.19415 39.7958 2.30018 40.1762 2.51225C40.5562 2.71675 40.851 3.0235 41.0606 3.4325C41.2776 3.83393 41.3864 4.31865 41.3864 4.88672V8.57907H39.7571V5.10257C39.7571 4.60269 39.6291 4.2202 39.3733 3.95511C39.1173 3.68245 38.7679 3.54611 38.3259 3.54611C37.8761 3.54611 37.519 3.68245 37.2552 3.95511C36.9995 4.2202 36.8715 4.60269 36.8715 5.10257V8.57907H35.2422V0.171875H36.8715V3.06895C37.0807 2.79628 37.36 2.58421 37.709 2.43273C38.0584 2.27367 38.4462 2.19415 38.8727 2.19415Z" fill="#272727"/>
        <path d="M48.9351 5.30044C48.9351 5.52764 48.9196 5.73214 48.8886 5.91394H44.1756C44.2147 6.36837 44.3774 6.72434 44.6645 6.98187C44.9515 7.23939 45.3046 7.36814 45.7234 7.36814C46.3285 7.36814 46.759 7.11443 47.0151 6.60695H48.7721C48.5861 7.21288 48.229 7.71277 47.7017 8.1066C47.1741 8.4929 46.5262 8.68603 45.7584 8.68603C45.1378 8.68603 44.5792 8.55349 44.0827 8.2884C43.5941 8.01572 43.21 7.63323 42.9308 7.14094C42.6592 6.64862 42.5234 6.08055 42.5234 5.43675C42.5234 4.78539 42.6592 4.21357 42.9308 3.72125C43.2023 3.22893 43.5823 2.85023 44.0712 2.58514C44.5597 2.32005 45.1223 2.1875 45.7584 2.1875C46.3713 2.1875 46.9181 2.31626 47.3992 2.57377C47.8877 2.83129 48.264 3.19864 48.5278 3.67579C48.7994 4.14538 48.9351 4.68694 48.9351 5.30044ZM47.2479 4.84598C47.2401 4.43698 47.0889 4.1113 46.7941 3.86894C46.4993 3.61898 46.1385 3.49402 45.7119 3.49402C45.3083 3.49402 44.967 3.6152 44.6877 3.85759C44.4162 4.09239 44.2494 4.42185 44.1874 4.84598H47.2479Z" fill="#272727"/>
        <path d="M31.3263 19.1466C30.76 19.1466 30.248 19.0519 29.7903 18.8626C29.3404 18.6732 28.9836 18.4006 28.7198 18.0446C28.456 17.6886 28.3203 17.2682 28.3125 16.7835H30.058C30.0812 17.1092 30.1976 17.3667 30.4071 17.5561C30.6243 17.7454 30.9191 17.8401 31.2914 17.8401C31.6714 17.8401 31.9703 17.753 32.1876 17.5788C32.4046 17.397 32.5134 17.1622 32.5134 16.8744C32.5134 16.6396 32.4396 16.4465 32.292 16.295C32.1448 16.1435 31.9585 16.0261 31.7338 15.9428C31.5165 15.8519 31.2138 15.7534 30.826 15.6474C30.2984 15.4959 29.8679 15.3482 29.5343 15.2043C29.2085 15.0528 28.9254 14.8294 28.6849 14.534C28.4521 14.231 28.3358 13.8296 28.3358 13.3297C28.3358 12.8602 28.456 12.4512 28.6965 12.1027C28.937 11.7543 29.2744 11.4892 29.7089 11.3075C30.1433 11.1181 30.6398 11.0234 31.1983 11.0234C32.0363 11.0234 32.7148 11.2242 33.2347 11.6256C33.7623 12.0194 34.053 12.5723 34.1073 13.2843H32.3153C32.2998 13.0116 32.1798 12.7882 31.9548 12.614C31.7375 12.4322 31.4467 12.3413 31.082 12.3413C30.7639 12.3413 30.5079 12.4209 30.314 12.5799C30.1278 12.7389 30.0347 12.97 30.0347 13.2729C30.0347 13.485 30.1045 13.663 30.2442 13.8069C30.3915 13.9432 30.57 14.0568 30.7794 14.1477C30.9966 14.231 31.2992 14.3295 31.6869 14.4431C32.2145 14.5946 32.6451 14.7461 32.9786 14.8976C33.3122 15.049 33.5992 15.2763 33.8398 15.5792C34.0803 15.8822 34.2006 16.2798 34.2006 16.7721C34.2006 17.1963 34.0881 17.5901 33.863 17.9537C33.638 18.3173 33.3085 18.6089 32.8739 18.8285C32.4396 19.0406 31.9238 19.1466 31.3263 19.1466Z" fill="#272727"/>
        <path d="M41.7067 12.7656V19.0596H40.0659V18.2644C39.8564 18.537 39.5811 18.7529 39.2398 18.9119C38.906 19.0634 38.5414 19.1392 38.1459 19.1392C37.6416 19.1392 37.1955 19.0369 36.8077 18.8324C36.4199 18.6203 36.1133 18.3136 35.8883 17.9122C35.6713 17.5032 35.5625 17.0185 35.5625 16.458V12.7656H37.1918V16.2307C37.1918 16.7306 37.3198 17.1169 37.5758 17.3896C37.8316 17.6546 38.1809 17.7872 38.623 17.7872C39.0727 17.7872 39.4258 17.6546 39.6819 17.3896C39.9379 17.1169 40.0659 16.7306 40.0659 16.2307V12.7656H41.7067Z" fill="#272727"/>
        <path d="M44.934 13.683C45.1432 13.3952 45.4302 13.1566 45.7948 12.9673C46.1674 12.7703 46.5902 12.6719 47.0632 12.6719C47.6141 12.6719 48.1107 12.8044 48.5527 13.0695C49.0028 13.3346 49.3556 13.7133 49.6116 14.2056C49.8754 14.6904 50.0071 15.2546 50.0071 15.8984C50.0071 16.5422 49.8754 17.1141 49.6116 17.614C49.3556 18.1062 49.0028 18.4887 48.5527 18.7614C48.1107 19.0341 47.6141 19.1704 47.0632 19.1704C46.5902 19.1704 46.1711 19.0757 45.8066 18.8864C45.4498 18.697 45.1587 18.4584 44.934 18.1706V22.0675H43.3047V12.7741H44.934V13.683ZM48.3432 15.8984C48.3432 15.5197 48.2619 15.194 48.0989 14.9214C47.9439 14.6411 47.7343 14.4291 47.4706 14.2851C47.2145 14.1412 46.9352 14.0693 46.6327 14.0693C46.3379 14.0693 46.0586 14.145 45.7948 14.2965C45.539 14.4404 45.3295 14.6525 45.1664 14.9327C45.0115 15.213 44.934 15.5424 44.934 15.9211C44.934 16.2999 45.0115 16.6293 45.1664 16.9096C45.3295 17.1898 45.539 17.4057 45.7948 17.5571C46.0586 17.7011 46.3379 17.773 46.6327 17.773C46.9352 17.773 47.2145 17.6972 47.4706 17.5458C47.7343 17.3943 47.9439 17.1784 48.0989 16.8982C48.2619 16.618 48.3432 16.2847 48.3432 15.8984Z" fill="#272727"/>
        <path d="M57.1929 15.7848C57.1929 16.012 57.1774 16.2165 57.1464 16.3983H52.4335C52.4725 16.8528 52.6353 17.2087 52.9223 17.4663C53.2093 17.7238 53.5624 17.8525 53.9812 17.8525C54.5863 17.8525 55.0169 17.5988 55.2729 17.0913H57.0299C56.8439 17.6972 56.4871 18.1972 55.9595 18.591C55.4319 18.9773 54.7841 19.1704 54.0162 19.1704C53.3956 19.1704 52.8371 19.0379 52.3405 18.7728C51.8519 18.5001 51.4679 18.1176 51.1886 17.6253C50.917 17.133 50.7812 16.5649 50.7812 15.9211C50.7812 15.2698 50.917 14.6979 51.1886 14.2056C51.4601 13.7133 51.8402 13.3346 52.329 13.0695C52.8175 12.8044 53.3801 12.6719 54.0162 12.6719C54.6291 12.6719 55.1759 12.8006 55.657 13.0581C56.1455 13.3157 56.5218 13.683 56.7856 14.1602C57.0572 14.6298 57.1929 15.1713 57.1929 15.7848ZM55.5057 15.3304C55.498 14.9214 55.3467 14.5957 55.0519 14.3533C54.7571 14.1034 54.3963 13.9784 53.9697 13.9784C53.5661 13.9784 53.2248 14.0996 52.9455 14.342C52.674 14.5767 52.5072 14.9062 52.4452 15.3304H55.5057Z" fill="#272727"/>
        <path d="M60.004 13.7476C60.2135 13.4144 60.4851 13.1531 60.8186 12.9637C61.1599 12.7744 61.5477 12.6797 61.9823 12.6797V14.3498H61.5517C61.0396 14.3498 60.6518 14.4672 60.388 14.702C60.132 14.9368 60.004 15.3458 60.004 15.929V19.0646H58.375V12.7706H60.004V13.7476Z" fill="#272727"/>
        <path d="M64.7071 13.683C64.9166 13.3952 65.2037 13.1566 65.5682 12.9673C65.9405 12.7703 66.3633 12.6719 66.8367 12.6719C67.3872 12.6719 67.8838 12.8044 68.3261 13.0695C68.7759 13.3346 69.129 13.7133 69.385 14.2056C69.6488 14.6904 69.7806 15.2546 69.7806 15.8984C69.7806 16.5422 69.6488 17.1141 69.385 17.614C69.129 18.1062 68.7759 18.4887 68.3261 18.7614C67.8838 19.0341 67.3872 19.1704 66.8367 19.1704C66.3633 19.1704 65.9445 19.0757 65.5797 18.8864C65.2229 18.697 64.9321 18.4584 64.7071 18.1706V22.0675H63.0781V12.7741H64.7071V13.683ZM68.1166 15.8984C68.1166 15.5197 68.0351 15.194 67.8723 14.9214C67.717 14.6411 67.5075 14.4291 67.244 14.2851C66.9879 14.1412 66.7086 14.0693 66.4061 14.0693C66.1113 14.0693 65.832 14.145 65.5682 14.2965C65.3122 14.4404 65.1026 14.6525 64.9399 14.9327C64.7846 15.213 64.7071 15.5424 64.7071 15.9211C64.7071 16.2999 64.7846 16.6293 64.9399 16.9096C65.1026 17.1898 65.3122 17.4057 65.5682 17.5571C65.832 17.7011 66.1113 17.773 66.4061 17.773C66.7086 17.773 66.9879 17.6972 67.244 17.5458C67.5075 17.3943 67.717 17.1784 67.8723 16.8982C68.0351 16.618 68.1166 16.2847 68.1166 15.8984Z" fill="#272727"/>
        <path d="M73.8322 19.1704C73.2116 19.1704 72.6533 19.0379 72.1567 18.7728C71.6602 18.5001 71.2683 18.1176 70.9813 17.6253C70.7023 17.133 70.5625 16.5649 70.5625 15.9211C70.5625 15.2774 70.706 14.7093 70.9931 14.217C71.2879 13.7247 71.6874 13.346 72.1918 13.0809C72.6958 12.8082 73.2584 12.6719 73.879 12.6719C74.4996 12.6719 75.0619 12.8082 75.5662 13.0809C76.0703 13.346 76.4661 13.7247 76.7532 14.217C77.048 14.7093 77.1952 15.2774 77.1952 15.9211C77.1952 16.5649 77.0439 17.133 76.7414 17.6253C76.4466 18.1176 76.0433 18.5001 75.5312 18.7728C75.0269 19.0379 74.4608 19.1704 73.8322 19.1704ZM73.8322 17.7843C74.127 17.7843 74.4026 17.7162 74.6586 17.5798C74.9224 17.436 75.1316 17.2239 75.287 16.9436C75.4419 16.6634 75.5198 16.3226 75.5198 15.9211C75.5198 15.3228 75.3567 14.8646 75.0309 14.5465C74.7129 14.2208 74.321 14.0579 73.8558 14.0579C73.3902 14.0579 72.9983 14.2208 72.6803 14.5465C72.37 14.8646 72.215 15.3228 72.215 15.9211C72.215 16.5195 72.3663 16.9815 72.6688 17.3072C72.9791 17.6253 73.3669 17.7843 73.8322 17.7843Z" fill="#272727"/>
        <path d="M87.3222 12.7656L85.4372 19.0596H83.6799L82.5048 14.6629L81.3296 19.0596H79.5608L77.6641 12.7656H79.3163L80.4567 17.56L81.6901 12.7656H83.4124L84.6226 17.5486L85.763 12.7656H87.3222Z" fill="#272727"/>
        <path d="M94.2008 15.7848C94.2008 16.012 94.1853 16.2165 94.1543 16.3983H89.4416C89.4803 16.8528 89.6431 17.2087 89.9301 17.4663C90.2172 17.7238 90.5702 17.8525 90.989 17.8525C91.5941 17.8525 92.0247 17.5988 92.2807 17.0913H94.0377C93.8517 17.6972 93.4949 18.1972 92.9673 18.591C92.4397 18.9773 91.7919 19.1704 91.024 19.1704C90.4035 19.1704 89.8449 19.0379 89.3483 18.7728C88.8597 18.5001 88.4757 18.1176 88.1964 17.6253C87.9248 17.133 87.7891 16.5649 87.7891 15.9211C87.7891 15.2698 87.9248 14.6979 88.1964 14.2056C88.4679 13.7133 88.848 13.3346 89.3368 13.0695C89.8253 12.8044 90.388 12.6719 91.024 12.6719C91.6369 12.6719 92.1837 12.8006 92.6648 13.0581C93.1536 13.3157 93.5296 13.683 93.7934 14.1602C94.065 14.6298 94.2008 15.1713 94.2008 15.7848ZM92.5135 15.3304C92.5058 14.9214 92.3545 14.5957 92.0597 14.3533C91.7649 14.1034 91.4041 13.9784 90.9776 13.9784C90.574 13.9784 90.2327 14.0996 89.9534 14.342C89.6818 14.5767 89.5151 14.9062 89.4531 15.3304H92.5135Z" fill="#272727"/>
        <path d="M97.0118 13.7476C97.2213 13.4144 97.4929 13.1531 97.8264 12.9637C98.1677 12.7744 98.5558 12.6797 98.9901 12.6797V14.3498H98.5595C98.0474 14.3498 97.6596 14.4672 97.3958 14.702C97.1398 14.9368 97.0118 15.3458 97.0118 15.929V19.0646H95.3828V12.7706H97.0118V13.7476Z" fill="#272727"/>
        <path d="M30.1525 21.625V29.555H28.5234V21.625H30.1525Z" fill="#272727"/>
        <path d="M35.3301 23.1719C36.0982 23.1719 36.7188 23.4105 37.1918 23.8876C37.6652 24.3572 37.9017 25.0162 37.9017 25.8645V29.5568H36.2727V26.0803C36.2727 25.5804 36.1447 25.1979 35.8886 24.9328C35.6326 24.6602 35.2836 24.5238 34.8412 24.5238C34.3914 24.5238 34.0346 24.6602 33.7708 24.9328C33.5148 25.1979 33.3868 25.5804 33.3868 26.0803V29.5568H31.7578V23.2628H33.3868V24.0467C33.6041 23.774 33.8793 23.5619 34.2129 23.4105C34.5542 23.2514 34.9268 23.1719 35.3301 23.1719Z" fill="#272727"/>
        <path d="M41.9174 29.6626C41.3899 29.6626 40.9168 29.5717 40.4977 29.3899C40.0789 29.2005 39.7454 28.9468 39.4971 28.6287C39.2566 28.3106 39.1248 27.9584 39.1016 27.5721H40.7423C40.7733 27.8145 40.8936 28.0152 41.1028 28.1743C41.3201 28.3333 41.5876 28.4129 41.9057 28.4129C42.216 28.4129 42.4565 28.3523 42.6273 28.2311C42.8055 28.1099 42.8948 27.9546 42.8948 27.7653C42.8948 27.5608 42.7863 27.4093 42.569 27.3108C42.3595 27.2048 42.0222 27.0912 41.5566 26.97C41.0758 26.8564 40.68 26.739 40.3697 26.6178C40.0672 26.4966 39.8034 26.3111 39.5786 26.0611C39.3613 25.8112 39.2528 25.4741 39.2528 25.05C39.2528 24.7016 39.3536 24.3835 39.5554 24.0956C39.7646 23.8079 40.0594 23.5806 40.4398 23.414C40.8275 23.2474 41.2814 23.1641 41.8012 23.1641C42.569 23.1641 43.1819 23.3534 43.6397 23.7321C44.0972 24.1032 44.3496 24.6069 44.3961 25.2431H42.8365C42.8133 24.9932 42.7048 24.7962 42.5108 24.6523C42.3248 24.5009 42.0724 24.4251 41.7544 24.4251C41.4596 24.4251 41.2308 24.4781 41.0681 24.5842C40.9128 24.6902 40.8353 24.8379 40.8353 25.0273C40.8353 25.2393 40.9438 25.4022 41.1611 25.5158C41.3784 25.6218 41.7157 25.7316 42.1735 25.8453C42.6388 25.9589 43.0228 26.0763 43.3254 26.1975C43.6279 26.3186 43.8877 26.508 44.105 26.7655C44.33 27.0155 44.4463 27.3487 44.454 27.7653C44.454 28.1288 44.3496 28.4545 44.14 28.7423C43.9382 29.0302 43.6434 29.2574 43.2556 29.424C42.8756 29.5831 42.4295 29.6626 41.9174 29.6626Z" fill="#272727"/>
        <path d="M47.6976 24.5583V27.6031C47.6976 27.8151 47.7482 27.9704 47.8489 28.0689C47.9577 28.1598 48.1359 28.2052 48.3842 28.2052H49.1406V29.5458H48.1167C46.7435 29.5458 46.0569 28.8945 46.0569 27.5917V24.5583H45.2891V23.2518H46.0569V21.6953H47.6976V23.2518H49.1406V24.5583H47.6976Z" fill="#272727"/>
        <path d="M51.1334 22.5117C50.8464 22.5117 50.6058 22.4246 50.4121 22.2504C50.2258 22.0686 50.1328 21.8451 50.1328 21.5801C50.1328 21.315 50.2258 21.0953 50.4121 20.9211C50.6058 20.7393 50.8464 20.6484 51.1334 20.6484C51.4205 20.6484 51.657 20.7393 51.8433 20.9211C52.0373 21.0953 52.1344 21.315 52.1344 21.5801C52.1344 21.8451 52.0373 22.0686 51.8433 22.2504C51.657 22.4246 51.4205 22.5117 51.1334 22.5117ZM51.9363 23.2615V29.5555H50.3073V23.2615H51.9363Z" fill="#272727"/>
        <path d="M55.4479 24.5583V27.6031C55.4479 27.8151 55.4982 27.9704 55.5992 28.0689C55.7077 28.1598 55.8863 28.2052 56.1342 28.2052H56.8906V29.5458H55.8667C54.4935 29.5458 53.8072 28.8945 53.8072 27.5917V24.5583H53.0391V23.2518H53.8072V21.6953H55.4479V23.2518H56.8906V24.5583H55.4479Z" fill="#272727"/>
        <path d="M64.1439 23.2578V29.5519H62.5031V28.7566C62.2936 29.0292 62.0183 29.2451 61.677 29.4042C61.3435 29.5556 60.9789 29.6314 60.5831 29.6314C60.0791 29.6314 59.633 29.5291 59.2449 29.3246C58.8571 29.1126 58.5508 28.8058 58.3258 28.4044C58.1085 27.9954 58 27.5106 58 26.9502V23.2578H59.629V26.7229C59.629 27.2228 59.757 27.6091 60.013 27.8818C60.2691 28.1469 60.6181 28.2794 61.0602 28.2794C61.5102 28.2794 61.8633 28.1469 62.1191 27.8818C62.3751 27.6091 62.5031 27.2228 62.5031 26.7229V23.2578H64.1439Z" fill="#272727"/>
        <path d="M67.6508 24.5583V27.6031C67.6508 27.8151 67.7013 27.9704 67.802 28.0689C67.9108 28.1598 68.0891 28.2052 68.3374 28.2052H69.0937V29.5458H68.0699C66.6966 29.5458 66.01 28.8945 66.01 27.5917V24.5583H65.2422V23.2518H66.01V21.6953H67.6508V23.2518H69.0937V24.5583H67.6508Z" fill="#272727"/>
        <path d="M76.2633 26.277C76.2633 26.5042 76.2474 26.7087 76.2164 26.8905H71.5038C71.5425 27.3449 71.7056 27.7009 71.9926 27.9584C72.2797 28.2159 72.6324 28.3447 73.0515 28.3447C73.6566 28.3447 74.0872 28.091 74.3432 27.5835H76.1002C75.9139 28.1894 75.5571 28.6893 75.0295 29.0832C74.5022 29.4695 73.8544 29.6626 73.0862 29.6626C72.4656 29.6626 71.9074 29.53 71.4108 29.265C70.9219 28.9923 70.5379 28.6098 70.2589 28.1175C69.9873 27.6252 69.8516 27.0571 69.8516 26.4133C69.8516 25.7619 69.9873 25.1901 70.2589 24.6978C70.5301 24.2055 70.9105 23.8268 71.399 23.5617C71.8878 23.2966 72.4501 23.1641 73.0862 23.1641C73.6991 23.1641 74.2462 23.2928 74.727 23.5503C75.2158 23.8079 75.5921 24.1752 75.8559 24.6523C76.1275 25.1219 76.2633 25.6635 76.2633 26.277ZM74.5757 25.8225C74.568 25.4135 74.4167 25.0879 74.1219 24.8455C73.8271 24.5955 73.4666 24.4706 73.0397 24.4706C72.6365 24.4706 72.2952 24.5917 72.0159 24.8341C71.7443 25.0689 71.5775 25.3984 71.5156 25.8225H74.5757Z" fill="#272727"/>
        <path d="M0.421875 24.1776C0.421875 24.0105 0.560659 23.875 0.731858 23.875H17.8764V29.5555H0.731858C0.560659 29.5555 0.421875 29.42 0.421875 29.2529V24.1776Z" fill="#272727"/>
        <path d="M19.2188 0.71875H24.2794C24.4506 0.71875 24.5894 0.854252 24.5894 1.0214V6.09665C24.5894 6.26377 24.4506 6.3993 24.2794 6.3993H19.2188V0.71875Z" fill="#272727"/>
        <path d="M19.2188 12.0781H22.1095C23.4791 12.0781 24.5894 13.1622 24.5894 14.4993V27.1355C24.5894 28.4727 23.4791 29.5567 22.1095 29.5567H19.2188V12.0781Z" fill="#272727"/>
        <path fill-rule="evenodd" clip-rule="evenodd" d="M6.00157 0.71875C2.91999 0.71875 0.421875 3.15776 0.421875 6.16644V12.7496C0.421875 15.7583 2.91999 18.1973 6.00157 18.1973H17.8764V0.71875H6.00157ZM8.58236 6.3993C7.04156 6.3993 5.79252 7.61879 5.79252 9.12314V9.35597C5.79252 10.8603 7.04156 12.0798 8.58236 12.0798H17.8764V6.3993H8.58236Z" fill="#272727"/>
    </g>
    <defs>
        <clipPath id="clip0_8547_122511">
            <rect width="98.5746" height="29.6596" fill="white" transform="translate(0.421875 0.171875)"/>
        </clipPath>
    </defs>
</svg>
