<svg width="49" height="33" viewBox="0 0 49 33" fill="none" xmlns="http://www.w3.org/2000/svg">
<g clip-path="url(#clip0_3955_16868)">
<path d="M15.8282 24.654C15.8949 24.5933 16.5771 24.0344 17.3443 23.412C18.1114 22.7897 18.7847 22.2417 18.8404 22.1943C18.8962 22.1469 18.5531 20.9224 18.0779 19.4731C17.1519 16.6486 16.9726 15.6551 17.1207 14.1702C17.2339 13.035 17.7945 11.9387 18.6821 11.1167C19.6991 10.1749 21.3984 9.21613 23.1217 8.61191L23.7445 8.39355L24.0779 10.0807C24.2613 11.0087 24.4466 11.7679 24.4896 11.7679C24.5326 11.7679 24.7234 11.009 24.9137 10.0814L25.2595 8.3948L25.8805 8.61253C27.602 9.21616 29.3018 10.1753 30.3183 11.1167C31.2059 11.9387 31.7665 13.035 31.8797 14.1702C32.0278 15.6551 31.8485 16.6486 30.9225 19.4731C30.4473 20.9224 30.1042 22.1469 30.16 22.1943C30.2157 22.2417 30.889 22.7897 31.6561 23.412C32.4233 24.0344 33.1055 24.5933 33.1722 24.654C33.2907 24.7617 32.9978 24.6594 29.5639 23.3937L27.8962 22.779V19.2086C27.8962 15.1843 27.9147 15.2796 26.9729 14.4504C25.6503 13.2858 23.3501 13.2858 22.0275 14.4504C21.0857 15.2796 21.1042 15.1843 21.1042 19.2086V22.779L19.4365 23.3937C16.0026 24.6594 15.7097 24.7617 15.8282 24.654ZM22.9301 18.967C23.1266 18.3856 23.2854 17.8519 23.283 17.781C23.2806 17.7101 22.8464 17.3518 22.3181 16.9848L21.3575 16.3176L22.5879 16.2569L23.8182 16.1962L24.1871 15.0669L24.5559 13.9376L24.932 15.0669L25.3081 16.1962L26.5103 16.2569L27.7125 16.3176L26.8037 16.9722C26.3039 17.3322 25.8754 17.6429 25.8515 17.6627C25.8276 17.6825 25.977 18.203 26.1837 18.8192C26.3903 19.4355 26.5463 19.9524 26.5304 19.9678C26.5145 19.9832 26.0678 19.6807 25.5378 19.2955L24.5742 18.5953L23.7185 19.2239C23.2479 19.5697 22.7976 19.8911 22.7179 19.9383C22.6378 19.9857 22.7327 19.5512 22.9301 18.967Z" fill="#FDFDFE"/>
<path d="M0 16.4997V7.40039H24.5H49V16.4997V25.5989H24.5H0V16.4997ZM18.4609 23.8313L21.0939 22.8691L21.1293 19.2188L21.1646 15.5685L21.52 15.0558C22.2218 14.0432 23.7681 13.4794 25.1785 13.7218C26.492 13.9476 27.5994 14.8128 27.8409 15.802L27.9223 16.1357H26.6457H25.369L24.9816 14.9724C24.7685 14.3326 24.5561 13.8549 24.5095 13.9108C24.463 13.9668 24.2684 14.5158 24.077 15.1309L23.7291 16.2492L22.4643 16.2835L21.1996 16.3177L22.232 17.026L23.2645 17.7343L22.912 18.7776C22.4525 20.1374 22.4565 20.2446 22.9536 19.8753C23.1704 19.7143 23.6245 19.3828 23.9626 19.1387L24.5775 18.6949L25.5898 19.4173C26.1465 19.8146 26.62 20.1217 26.642 20.0997C26.6639 20.0777 26.5184 19.5761 26.3187 18.9849C26.1189 18.3937 25.9574 17.852 25.9598 17.7811C25.9622 17.7102 26.3988 17.3394 26.9301 16.957L27.896 16.2617L27.8965 19.5654L27.897 22.8691L30.6403 23.8754C32.1492 24.4289 33.4031 24.8623 33.4268 24.8386C33.4505 24.8149 32.7345 24.1983 31.8357 23.4683C30.9369 22.7384 30.2013 22.0922 30.201 22.0323C30.2007 21.9724 30.5882 20.744 31.062 19.3025C31.834 16.9543 31.9303 16.555 31.9878 15.4639C32.1497 12.3933 30.7354 10.5952 26.8297 8.90613C26.3073 8.68023 25.7168 8.46276 25.5174 8.42287L25.1549 8.35033L24.8658 9.8772C24.7068 10.717 24.5422 11.4041 24.5 11.4041C24.4578 11.4041 24.2932 10.717 24.1342 9.8772L23.8451 8.35033L23.4826 8.42287C23.2832 8.46276 22.6926 8.68023 22.1703 8.90613C18.2646 10.5952 16.8503 12.3933 17.0122 15.4639C17.0698 16.5563 17.1659 16.954 17.9459 19.3268C18.4242 20.7817 18.7982 22.0192 18.7772 22.0767C18.7561 22.1343 18.0566 22.7374 17.2228 23.4168C16.3889 24.0963 15.6521 24.7094 15.5854 24.7794C15.4297 24.9428 15.3204 24.9789 18.4609 23.8313Z" fill="#0032FE"/>
<path d="M0 30.0882V27.1765H24.5H49V30.0882V33H24.5H0V30.0882ZM0 2.91176V0H24.5H49V2.91176V5.82353H24.5H0V2.91176Z" fill="#008700"/>
<path d="M0 26.3876V25.599H24.5H49V26.3876V27.1762H24.5H0V26.3876ZM0 6.61185V5.82324H24.5H49V6.61185V7.40045H24.5H0V6.61185Z" fill="black"/>
</g>
<defs>
<clipPath id="clip0_3955_16868">
<rect width="49" height="33" fill="white"/>
</clipPath>
</defs>
</svg>
