<svg width="33" height="33" viewBox="0 0 33 33" fill="none"
    xmlns="http://www.w3.org/2000/svg">
    <path d="M22.9229 3.54897C23.8274 3.48269 24.6508 3.50217 25.2739 3.54256C25.3143 4.16568 25.3338 4.98912 25.2675 5.89358C25.1201 7.90509 24.57 10.0256 23.2088 11.3868C21.7978 12.7978 19.6011 13.5295 17.6276 13.7637C16.7409 13.8689 15.9742 13.8641 15.4385 13.8031C15.4256 13.0044 15.4332 11.8586 15.5854 10.5854C15.823 8.59731 16.3784 6.7066 17.4396 5.59779C18.8012 4.24382 20.9163 3.69604 22.9229 3.54897Z" stroke="currentColor" stroke-width="3"/>
    <rect x="14.0195" y="14.2285" width="3" height="16" fill="currentColor"/>
    <path d="M7.91695 13.549C7.01249 13.4827 6.18905 13.5022 5.56593 13.5426C5.52554 14.1657 5.50606 14.9891 5.57234 15.8936C5.71977 17.9051 6.26987 20.0256 7.63107 21.3868C9.04207 22.7978 11.2387 23.5295 13.2123 23.7637C14.0989 23.8689 14.8657 23.8641 15.4013 23.8031C15.4142 23.0044 15.4067 21.8586 15.2545 20.5854C15.0168 18.5973 14.4615 16.7066 13.4003 15.5978C12.0387 14.2438 9.92357 13.696 7.91695 13.549Z" stroke="currentColor" stroke-width="3"/>
</svg>
