<svg width="33" height="33" viewBox="0 0 33 33" fill="none"
    xmlns="http://www.w3.org/2000/svg">
    <path d="M17.5774 5.72029C18.5425 4.84386 19.7575 4.17011 21.3289 3.88187C21.0219 6.14565 21.0723 7.94544 21.3901 9.44368C21.8016 11.3837 22.6373 12.7016 23.5041 13.7777C23.786 14.1277 24.0942 14.4785 24.3728 14.7956C24.4938 14.9334 24.6093 15.0649 24.7146 15.1871C25.0867 15.6191 25.4016 16.0129 25.6651 16.4357C26.1616 17.2325 26.5353 18.2265 26.519 19.8351C26.4701 24.6824 22.3348 28.7285 17.0192 28.7285C11.6893 28.7285 7.51953 24.6726 7.51953 19.8502C7.51953 17.8255 7.71586 15.9555 8.07097 14.2652C8.11542 14.3739 8.16017 14.4828 8.20515 14.5915C8.63677 15.6346 9.10981 16.7139 9.53525 17.5037C9.73778 17.8797 9.98172 18.2903 10.2527 18.5984C10.3733 18.7355 10.6205 18.9963 10.9909 19.1567C11.1967 19.2458 11.4944 19.3271 11.8481 19.2857C12.2196 19.2423 12.5319 19.0774 12.7633 18.8648C13.0592 18.5927 13.1631 18.2734 13.177 18.2309C13.1776 18.2291 13.178 18.2278 13.1782 18.227C13.2132 18.1254 13.2322 18.0373 13.2414 17.9911C13.2611 17.8926 13.2737 17.7931 13.282 17.7215C13.2986 17.5773 13.3151 17.3862 13.3325 17.186L13.3349 17.159C13.3729 16.7204 13.4246 16.1287 13.5138 15.426C13.693 14.0142 14.0194 12.1948 14.6617 10.4069C15.3066 8.61196 16.2391 6.93564 17.5774 5.72029Z" stroke="currentColor" stroke-width="3"/>
    <path d="M22.0112 21.6853C21.5108 20.6826 20.4773 19.5064 19.3261 18.435C19.4179 19.3051 19.3733 20.2612 19.071 21.2522L19.0704 21.254C18.811 22.1006 18.2933 22.6628 17.7846 23.0507C17.4271 23.3233 16.992 23.5613 16.7001 23.721C16.629 23.7599 16.5664 23.7942 16.5155 23.8231C16.1688 24.0204 16.0688 24.117 16.0331 24.1656C16.0255 24.1759 16.021 24.1833 16.0158 24.2041C16.0097 24.2289 15.9961 24.3019 16.0095 24.4467C16.1061 25.2066 16.6968 26.1775 17.6783 26.9665C18.6699 27.7636 19.7232 28.1055 20.4351 28.0204C21.0424 27.9477 21.6354 27.5192 22.0898 26.6446C22.5453 25.768 22.7428 24.6359 22.6238 23.6414C22.5652 23.1518 22.4284 22.5209 22.0112 21.6853Z" stroke="currentColor" stroke-width="3"/>
</svg>
