<svg width="33" height="33" viewBox="0 0 33 33" fill="none"
    xmlns="http://www.w3.org/2000/svg">
    <path d="M24.5195 21.294C24.5195 25.2455 20.8773 28.7285 16.0195 28.7285C11.1617 28.7285 7.51953 25.2455 7.51953 21.294C7.51953 17.5495 9.47838 13.0787 11.7567 9.42489C12.8787 7.62543 14.035 6.09322 14.9778 5.02769C15.3906 4.56109 15.7443 4.20462 16.0214 3.9597C16.2981 4.20316 16.6512 4.55744 17.0634 5.0213C18.0057 6.08169 19.1616 7.60765 20.2832 9.40265C22.5598 13.0462 24.5195 17.5175 24.5195 21.294ZM16.4148 3.65398C16.4435 3.63762 16.4417 3.64201 16.4138 3.65456C16.4141 3.65436 16.4145 3.65417 16.4148 3.65398ZM15.6282 3.65556C15.6005 3.64316 15.5988 3.63884 15.6273 3.65504C15.6276 3.65521 15.6279 3.65539 15.6282 3.65556Z" stroke="currentColor" stroke-width="3"/>
    <path d="M18.816 20.9064C18.1566 18.0381 17.2564 16.2107 16.0195 14.2285" stroke="currentColor" stroke-width="3" stroke-linecap="round"/>
</svg>
