<svg width="33" height="33" viewBox="0 0 33 33" fill="none"
    xmlns="http://www.w3.org/2000/svg">
    <circle cx="16.7598" cy="16.2285" r="5" stroke="#353535" stroke-width="3"/>
    <path d="M29.7598 17.2285C30.3121 17.2285 30.7598 16.7808 30.7598 16.2285C30.7598 15.6762 30.3121 15.2285 29.7598 15.2285V17.2285ZM24.7598 17.2285H29.7598V15.2285H24.7598V17.2285Z" fill="#353535"/>
    <path d="M15.7598 29.2285C15.7598 29.7808 16.2075 30.2285 16.7598 30.2285C17.3121 30.2285 17.7598 29.7808 17.7598 29.2285L15.7598 29.2285ZM15.7598 24.2285L15.7598 29.2285L17.7598 29.2285L17.7598 24.2285L15.7598 24.2285Z" fill="#353535"/>
    <path d="M17.7598 3.22852C17.7598 2.67623 17.3121 2.22852 16.7598 2.22852C16.2075 2.22852 15.7598 2.67623 15.7598 3.22852L17.7598 3.22852ZM15.7598 3.22852L15.7598 8.22852L17.7598 8.22852L17.7598 3.22852L15.7598 3.22852Z" fill="#353535"/>
    <path d="M3.75977 15.2285C3.20748 15.2285 2.75977 15.6762 2.75977 16.2285C2.75977 16.7808 3.20748 17.2285 3.75977 17.2285L3.75977 15.2285ZM8.75977 15.2285L3.75977 15.2285L3.75977 17.2285L8.75977 17.2285L8.75977 15.2285Z" fill="#353535"/>
    <path d="M25.2444 26.1274C25.635 26.5179 26.2681 26.5179 26.6587 26.1274C27.0492 25.7369 27.0492 25.1037 26.6587 24.7132L25.2444 26.1274ZM21.7089 22.5919L25.2444 26.1274L26.6587 24.7132L23.1231 21.1777L21.7089 22.5919Z" fill="#353535"/>
    <path d="M6.86088 24.7132C6.47035 25.1037 6.47035 25.7369 6.86088 26.1274C7.2514 26.5179 7.88456 26.5179 8.27509 26.1274L6.86088 24.7132ZM10.3964 21.1777L6.86088 24.7132L8.27509 26.1274L11.8106 22.5919L10.3964 21.1777Z" fill="#353535"/>
    <path d="M26.6602 7.74422C27.0508 7.35369 27.0508 6.72053 26.6602 6.33C26.2697 5.93948 25.6365 5.93948 25.246 6.33L26.6602 7.74422ZM25.246 6.33L21.7105 9.86554L23.1247 11.2797L26.6602 7.74422L25.246 6.33Z" fill="#353535"/>
    <path d="M8.27509 6.32963C7.88456 5.9391 7.2514 5.9391 6.86087 6.32963C6.47035 6.72015 6.47035 7.35331 6.86087 7.74384L8.27509 6.32963ZM11.8106 9.86516L8.27509 6.32963L6.86087 7.74384L10.3964 11.2794L11.8106 9.86516Z" fill="#353535"/>
</svg>
