<svg width="33" height="33" viewBox="0 0 33 33" fill="none"
    xmlns="http://www.w3.org/2000/svg">
    <path d="M4.01953 17.2285C4.01953 17.2285 24.9728 17.228 25.0049 17.2271C26.6785 17.178 28.0195 15.8543 28.0195 14.2285C28.0195 12.5717 26.6266 11.2285 24.9084 11.2285" stroke="#353535" stroke-width="3" stroke-linecap="round"/>
    <path d="M6.01953 11.2285C6.01953 11.2285 16.9728 11.228 17.0049 11.2271C18.6785 11.178 20.0195 9.85426 20.0195 8.22852C20.0195 6.57166 18.6266 5.22852 16.9084 5.22852" stroke="#353535" stroke-width="3" stroke-linecap="round"/>
    <path d="M10.0195 23.2285C10.0195 23.2285 16.0407 23.2288 16.059 23.2295C17.3477 23.2285 18.0195 24.1447 18.0195 25.2285C18.0195 26.3331 17.5039 27.2285 16.0039 27.2285" stroke="#353535" stroke-width="3" stroke-linecap="round"/>
</svg>
