<svg id="icon" width="33" height="33" viewBox="0 0 33 33" fill="none"
    xmlns="http://www.w3.org/2000/svg">
    <path d="M27.9616 6.0073C28.0104 6.01068 28.0408 6.02844 28.0567 6.04321C28.0709 6.05635 28.0814 6.07329 28.0844 6.10193C28.2536 7.72686 28.3631 12.5328 25.1903 19.9088C23.9582 22.3918 22.4344 23.9796 20.8271 24.9504C19.2139 25.9249 17.4742 26.3033 15.7793 26.3002C12.3517 26.2937 9.19278 24.727 7.87327 23.5279C6.61743 22.3867 5.66881 20.0905 5.60528 17.4492C5.54247 14.8379 6.35115 12.0206 8.43283 9.85769C9.52108 8.77159 11.065 7.95301 12.8714 7.35062C14.675 6.74916 16.6944 6.3783 18.6837 6.15959C22.6633 5.72208 26.441 5.90178 27.9616 6.0073Z" stroke="currentColor" stroke-width="1.5"/>
    <path d="M6.57734 26.4637C6.57734 26.4637 9.72235 19.2189 14.1637 14.5416C18.8622 9.59346 27.5114 6.47904 27.5114 6.47904" stroke="currentColor" stroke-width="1.5" stroke-linecap="round"/>
    <path d="M10.3379 19.563C10.3379 19.563 11.9342 20.5773 13.617 20.7502C15.2998 20.9231 17.069 20.2546 17.069 20.2546" stroke="currentColor" stroke-width="1.5" stroke-linecap="round"/>
    <path d="M10.4414 12.585C10.4414 12.585 9.52049 14.2369 9.44454 15.9268C9.36858 17.6168 10.1376 19.3447 10.1376 19.3447" stroke="currentColor" stroke-width="1.5" stroke-linecap="round"/>
    <path d="M16.9023 12.9814C16.9023 12.9814 17.7563 13.524 18.6564 13.6165C19.5566 13.709 20.503 13.3514 20.503 13.3514" stroke="currentColor" stroke-width="1.5" stroke-linecap="round"/>
    <path d="M16.7324 9.46936C16.7324 9.46936 16.2462 10.2095 16.2121 10.97C16.1779 11.7304 16.5957 12.5112 16.5957 12.5112" stroke="currentColor" stroke-width="1.5" stroke-linecap="round"/>
</svg>
