<svg id="icon" width="33" height="33" viewBox="0 0 33 33" fill="none"
    xmlns="http://www.w3.org/2000/svg">
    <path d="M12.2405 3.69741C12.2576 3.69866 12.2743 3.69993 12.2907 3.70121C12.292 3.71765 12.2933 3.7344 12.2945 3.75145C12.3232 4.1428 12.3406 4.68405 12.2966 5.28388C12.2064 6.5142 11.8689 7.84501 11.0044 8.70951C10.115 9.5989 8.74502 10.0497 7.53255 10.1936C6.9345 10.2646 6.41974 10.2551 6.07792 10.2055C6.06233 10.2033 6.04742 10.201 6.03318 10.1987C6.02273 9.71262 6.01853 8.94848 6.1207 8.0938C6.26555 6.88213 6.60673 5.6926 7.2872 4.98267C8.15184 4.12175 9.48 3.78536 10.708 3.69536C11.3079 3.65139 11.8491 3.66877 12.2405 3.69741ZM5.78761 10.1383C5.78432 10.1367 5.78479 10.1367 5.78828 10.1386L5.78761 10.1383Z" stroke="currentColor" stroke-width="1.5"/>
    <path d="M5.65644 9.59725L5.6565 9.59684L5.65644 9.59725ZM5.68799 8.80115C5.68649 8.77202 5.68467 8.74252 5.68249 8.71271C5.64273 8.1703 5.49802 7.71869 5.24451 7.46519C4.95788 7.17857 4.45964 6.99293 3.94654 6.93197C3.95268 7.02818 3.96156 7.12952 3.97418 7.23506C4.03985 7.78441 4.18346 8.17707 4.35895 8.36454C4.61371 8.61379 5.06205 8.75625 5.59955 8.79564C5.62936 8.79783 5.65887 8.79965 5.68799 8.80115ZM3.37914 6.92979C3.37917 6.92981 3.38029 6.92957 3.38243 6.92899C3.38018 6.92949 3.37911 6.92977 3.37914 6.92979Z" stroke="currentColor" stroke-width="2"/>
    <rect x="5.30859" y="8.90247" width="1.5" height="5.99994" rx="0.75" fill="currentColor"/>
    <path d="M17.6583 16.9024V7.65247H22.1583V16.9024V17.213L22.378 17.4327L28.0852 23.1397C28.132 23.1866 28.1584 23.2502 28.1584 23.3165V26.9022C28.1584 27.5926 27.5987 28.1522 26.9084 28.1522H12.9082C12.2178 28.1522 11.6582 27.5926 11.6582 26.9022V23.3165C11.6582 23.2502 11.6845 23.1866 11.7314 23.1397L17.4386 17.4327L17.6583 17.213V16.9024Z" stroke="currentColor" stroke-width="1.5"/>
    <rect x="14.9082" y="6.90247" width="10.0001" height="1.5" rx="0.75" fill="currentColor"/>
</svg>
