<svg id="icon" width="33" height="33" viewBox="0 0 33 33" fill="none"
    xmlns="http://www.w3.org/2000/svg">
    <mask id="path-1-inside-1_10597_61149" fill="white">
        <path fill-rule="evenodd" clip-rule="evenodd" d="M26.0195 6.22852H6.01953V25.2285C6.01953 27.9899 10.4967 30.2285 16.0195 30.2285C21.5424 30.2285 26.0195 27.9899 26.0195 25.2285V6.22852Z"/>
    </mask>
    <path d="M6.01953 6.22852V3.22852H3.01953V6.22852H6.01953ZM26.0195 6.22852H29.0195V3.22852H26.0195V6.22852ZM6.01953 9.22852H26.0195V3.22852H6.01953V9.22852ZM9.01953 25.2285V6.22852H3.01953V25.2285H9.01953ZM16.0195 27.2285C13.6229 27.2285 11.6014 26.7364 10.2901 26.0808C8.79937 25.3354 9.01953 24.8607 9.01953 25.2285H3.01953C3.01953 28.3577 5.47826 30.3831 7.60682 31.4473C9.91482 32.6013 12.8934 33.2285 16.0195 33.2285V27.2285ZM23.0195 25.2285C23.0195 24.8607 23.2397 25.3354 21.749 26.0808C20.4377 26.7364 18.4162 27.2285 16.0195 27.2285V33.2285C19.1457 33.2285 22.1242 32.6013 24.4322 31.4473C26.5608 30.3831 29.0195 28.3577 29.0195 25.2285H23.0195ZM23.0195 6.22852V25.2285H29.0195V6.22852H23.0195Z" fill="currentColor" mask="url(#path-1-inside-1_10597_61149)"/>
    <path d="M24.5195 6.22852V6.22869C24.5196 6.23771 24.5199 6.39596 24.203 6.69566C23.8807 7.0005 23.3337 7.34413 22.5335 7.66423C20.9414 8.30109 18.639 8.72852 16.0195 8.72852C13.4001 8.72852 11.0977 8.30109 9.50555 7.66423C8.70532 7.34413 8.15838 7.0005 7.83604 6.69566C7.51914 6.39596 7.51951 6.23771 7.51953 6.22869L7.51953 6.22852L7.51953 6.22834C7.51951 6.21932 7.51914 6.06107 7.83604 5.76137C8.15838 5.45653 8.70532 5.1129 9.50555 4.7928C11.0977 4.15595 13.4001 3.72852 16.0195 3.72852C18.639 3.72852 20.9414 4.15595 22.5335 4.7928C23.3337 5.1129 23.8807 5.45653 24.203 5.76137C24.5199 6.06107 24.5196 6.21933 24.5195 6.22834V6.22852Z" fill="white" stroke="currentColor" stroke-width="3"/>
    <path d="M25.0195 13.0293C25.0195 14.0923 19.6702 15.2637 15.9883 15.2637C12.3064 15.2637 7.01953 14.0923 7.01953 13.0293" stroke="currentColor" stroke-width="2" stroke-linecap="square"/>
    <path d="M25.0195 21.0293C25.0195 22.0923 19.6702 23.2637 15.9883 23.2637C12.3064 23.2637 7.01953 22.0923 7.01953 21.0293" stroke="currentColor" stroke-width="2" stroke-linecap="square"/>
</svg>
