<svg id="icon" width="33" height="33" viewBox="0 0 33 33" fill="none"
    xmlns="http://www.w3.org/2000/svg">
    <path d="M9.6582 11.073C9.6582 12.7883 8.30038 14.152 6.6582 14.152C5.01602 14.152 3.6582 12.7883 3.6582 11.073C3.6582 10.6842 3.81775 10.015 4.12492 9.15686C4.42273 8.32496 4.82914 7.39608 5.25593 6.52419C5.68295 5.65185 6.1224 4.85282 6.4817 4.27972C6.54438 4.17974 6.60334 4.0887 6.6582 4.00684C6.71306 4.0887 6.77202 4.17974 6.8347 4.27972C7.194 4.85282 7.63346 5.65185 8.06047 6.52419C8.48727 7.39608 8.89368 8.32496 9.19148 9.15686C9.49865 10.015 9.6582 10.6842 9.6582 11.073Z" stroke="currentColor" stroke-width="1.5"/>
    <path fill-rule="evenodd" clip-rule="evenodd" d="M26.0746 11.1146C24.8295 10.6838 23.0057 10.4023 20.9082 10.4023C18.8074 10.4023 16.9818 10.6778 15.7358 11.103C15.1064 11.3178 14.7116 11.5418 14.5026 11.7176C14.4571 11.7559 14.4272 11.7856 14.4082 11.8067V27.8666C14.4511 27.9122 14.5208 27.9764 14.6312 28.0562C14.9176 28.2634 15.3678 28.4925 15.993 28.7036C17.2385 29.1242 18.967 29.4023 20.9082 29.4023C22.8494 29.4023 24.5779 29.1242 25.8234 28.7036C26.4486 28.4925 26.8988 28.2634 27.1852 28.0562C27.2956 27.9764 27.3653 27.9122 27.4082 27.8666V11.8314C27.3889 11.8095 27.3578 11.778 27.3096 11.7371C27.0992 11.5588 26.7034 11.3322 26.0746 11.1146ZM27.4363 11.8687C27.4363 11.8687 27.4342 11.866 27.4315 11.8606C27.4352 11.866 27.4363 11.8687 27.4363 11.8687ZM28.9082 28.2148C28.4915 29.7248 25.0451 30.9023 20.9082 30.9023C16.7713 30.9023 13.3249 29.7248 12.9082 28.2148V11.707C12.9082 10.0502 16.4899 8.90234 20.9082 8.90234C25.3265 8.90234 28.9082 10.0776 28.9082 11.7344V28.2148ZM14.3788 11.8448C14.3788 11.8448 14.3799 11.8421 14.3836 11.8368C14.381 11.8421 14.3788 11.8448 14.3788 11.8448Z" fill="currentColor"/>
    <path fill-rule="evenodd" clip-rule="evenodd" d="M14.4121 16.7392V16.0654H12.9121V16.8154C12.9121 17.1878 13.0795 17.4905 13.2684 17.71C13.4552 17.9271 13.6968 18.1044 13.9466 18.2509C14.4471 18.5445 15.1122 18.7901 15.8399 18.9884C17.3045 19.3875 19.1846 19.638 20.916 19.638C22.6463 19.638 24.5257 19.3919 25.9901 18.9971C26.7176 18.8009 27.383 18.5576 27.8837 18.2656C28.1336 18.1199 28.3756 17.9433 28.5628 17.7264C28.7522 17.5071 28.9199 17.2043 28.9199 16.8316V16.0816H27.4199V16.7546C27.3767 16.8017 27.2876 16.8768 27.1282 16.9698C26.7905 17.1667 26.2683 17.3685 25.5997 17.5488C24.2717 17.9068 22.5242 18.138 20.916 18.138C19.3089 18.138 17.562 17.903 16.2343 17.5412C15.5658 17.3591 15.0435 17.1554 14.7056 16.9571C14.5449 16.8629 14.4554 16.7868 14.4121 16.7392Z" fill="currentColor"/>
    <path fill-rule="evenodd" clip-rule="evenodd" d="M28.8984 11.582V12.332C28.8984 12.7008 28.7344 13.0028 28.5507 13.2232C28.3679 13.4425 28.1305 13.6255 27.8826 13.7789C27.386 14.0864 26.7245 14.3503 25.9979 14.5663C24.5368 15.0005 22.6567 15.2864 20.916 15.2864C19.1846 15.2864 17.3045 15.036 15.8399 14.6369C15.1122 14.4386 14.4471 14.193 13.9466 13.8993C13.6968 13.7528 13.4552 13.5755 13.2684 13.3584C13.0795 13.139 12.9121 12.8362 12.9121 12.4638V11.7138H14.4121V12.3876C14.4554 12.4352 14.5449 12.5113 14.7056 12.6055C15.0435 12.8038 15.5658 13.0075 16.2343 13.1896C17.562 13.5514 19.3089 13.7864 20.916 13.7864C22.5139 13.7864 24.2499 13.5209 25.5705 13.1284C26.2346 12.931 26.7553 12.7126 27.0931 12.5035C27.2624 12.3987 27.3552 12.3147 27.3984 12.2629V11.582H28.8984Z" fill="currentColor"/>
    <path fill-rule="evenodd" clip-rule="evenodd" d="M14.4121 23.9931V23.3193H12.9121V24.0693C12.9121 24.4417 13.0795 24.7444 13.2684 24.9639C13.4552 25.181 13.6968 25.3583 13.9466 25.5048C14.4471 25.7984 15.1122 26.0441 15.8399 26.2424C17.3045 26.6414 19.1846 26.8919 20.916 26.8919C22.6463 26.8919 24.5257 26.6458 25.9901 26.251C26.7176 26.0548 27.383 25.8115 27.8837 25.5195C28.1336 25.3738 28.3756 25.1972 28.5628 24.9804C28.7522 24.761 28.9199 24.4582 28.9199 24.0855V23.3355H27.4199V24.0085C27.3767 24.0556 27.2876 24.1307 27.1282 24.2237C26.7905 24.4206 26.2683 24.6224 25.5997 24.8027C24.2717 25.1607 22.5242 25.3919 20.916 25.3919C19.3089 25.3919 17.562 25.1569 16.2343 24.7951C15.5658 24.613 15.0435 24.4093 14.7056 24.211C14.5449 24.1168 14.4554 24.0407 14.4121 23.9931Z" fill="currentColor"/>
</svg>
