<svg id="icon" width="33" height="33" viewBox="0 0 33 33" fill="none"
    xmlns="http://www.w3.org/2000/svg">
    <mask id="path-2-inside-1_11903_236694" fill="white">
        <path fill-rule="evenodd" clip-rule="evenodd" d="M11.6386 17.2632C12.9049 14.515 15.6838 12.6074 18.9082 12.6074C22.6567 12.6074 25.803 15.1855 26.6708 18.6652C29.0703 19.0324 30.9082 21.1053 30.9082 23.6074C30.9082 26.3688 28.6696 28.6074 25.9082 28.6074H18.9082H8.9082C5.59449 28.6074 2.9082 25.9211 2.9082 22.6074C2.9082 19.2937 5.59449 16.6074 8.9082 16.6074C9.89151 16.6074 10.8196 16.844 11.6386 17.2632Z"/>
    </mask>
    <path d="M11.6386 17.2632L10.955 18.5984L12.3467 19.3109L13.0009 17.891L11.6386 17.2632ZM26.6708 18.6652L25.2154 19.0282L25.457 19.9969L26.4439 20.1479L26.6708 18.6652ZM13.0009 17.891C14.0314 15.6547 16.2907 14.1074 18.9082 14.1074V11.1074C15.0769 11.1074 11.7785 13.3754 10.2763 16.6355L13.0009 17.891ZM18.9082 14.1074C21.9518 14.1074 24.5102 16.2007 25.2154 19.0282L28.1262 18.3022C27.0957 14.1702 23.3615 11.1074 18.9082 11.1074V14.1074ZM26.4439 20.1479C28.1222 20.4048 29.4082 21.8573 29.4082 23.6074H32.4082C32.4082 20.3533 30.0183 17.66 26.8977 17.1825L26.4439 20.1479ZM29.4082 23.6074C29.4082 25.5404 27.8412 27.1074 25.9082 27.1074V30.1074C29.4981 30.1074 32.4082 27.1973 32.4082 23.6074H29.4082ZM25.9082 27.1074H18.9082V30.1074H25.9082V27.1074ZM18.9082 27.1074H8.9082V30.1074H18.9082V27.1074ZM8.9082 27.1074C6.42292 27.1074 4.4082 25.0927 4.4082 22.6074H1.4082C1.4082 26.7496 4.76607 30.1074 8.9082 30.1074V27.1074ZM4.4082 22.6074C4.4082 20.1221 6.42292 18.1074 8.9082 18.1074V15.1074C4.76607 15.1074 1.4082 18.4653 1.4082 22.6074H4.4082ZM8.9082 18.1074C9.64836 18.1074 10.3427 18.285 10.955 18.5984L12.3221 15.928C11.2964 15.403 10.1347 15.1074 8.9082 15.1074V18.1074Z" fill="currentColor" mask="url(#path-2-inside-1_11903_236694)"/>
    <circle cx="8.9082" cy="12.6074" r="1" stroke="currentColor" stroke-width="2"/>
    <circle cx="22.9082" cy="4.60742" r="1" stroke="currentColor" stroke-width="2"/>
    <circle cx="27.9082" cy="11.6074" r="2.25" stroke="currentColor" stroke-width="1.5"/>
    <circle cx="13.9082" cy="7.60742" r="1" fill="currentColor"/>
    <circle cx="19.9082" cy="9.60742" r="1" fill="currentColor"/>
    <circle cx="5.9082" cy="5.60742" r="1" fill="currentColor"/>
</svg>
