<svg id="fossil" width="33" height="33" viewBox="0 0 33 33" fill="none"
    xmlns="http://www.w3.org/2000/svg">
    <path d="M3.875 29.875L31.1104 29.875" stroke="currentColor" stroke-width="1.5"/>
    <path d="M14.6874 19.584C14.7041 19.4587 14.8116 19.3656 14.9379 19.367L18.6899 19.4078C18.8379 19.4094 18.9522 19.5387 18.9356 19.6858L17.7906 29.8574H13.3176L14.6874 19.584Z" stroke="currentColor" stroke-width="1.5"/>
    <path d="M19.5097 15.5764C19.5254 15.4513 19.6317 15.3574 19.7578 15.3574H23.9922C24.1183 15.3574 24.2246 15.4513 24.2403 15.5764L26.0254 29.8574H17.7246L19.5097 15.5764Z" stroke="currentColor" stroke-width="1.5"/>
    <mask id="path-4-inside-1_11903_236692" fill="white">
        <path fill-rule="evenodd" clip-rule="evenodd" d="M20.0124 12.3091C19.5779 12.5009 19.0973 12.6074 18.5918 12.6074C16.6469 12.6074 15.0703 11.0308 15.0703 9.08594C15.0703 7.14108 16.6469 5.56445 18.5918 5.56445C19.9095 5.56445 21.0582 6.2882 21.662 7.35987C22.9166 7.56483 23.874 8.65375 23.874 9.96631C23.874 11.425 22.6916 12.6074 21.2329 12.6074C20.7926 12.6074 20.3775 12.4997 20.0124 12.3091Z"/>
    </mask>
    <path d="M20.0124 12.3091L20.7066 10.9794L20.0669 10.6455L19.4067 10.9369L20.0124 12.3091ZM21.662 7.35987L20.3551 8.09617L20.7089 8.72405L21.4201 8.84025L21.662 7.35987ZM19.4067 10.9369C19.1594 11.046 18.8847 11.1074 18.5918 11.1074V14.1074C19.3098 14.1074 19.9964 13.9558 20.6181 13.6814L19.4067 10.9369ZM18.5918 11.1074C17.4754 11.1074 16.5703 10.2024 16.5703 9.08594H13.5703C13.5703 11.8592 15.8185 14.1074 18.5918 14.1074V11.1074ZM16.5703 9.08594C16.5703 7.9695 17.4754 7.06445 18.5918 7.06445V4.06445C15.8185 4.06445 13.5703 6.31265 13.5703 9.08594H16.5703ZM18.5918 7.06445C19.3463 7.06445 20.0063 7.47709 20.3551 8.09617L22.9688 6.62357C22.11 5.09931 20.4727 4.06445 18.5918 4.06445V7.06445ZM21.4201 8.84025C21.961 8.9286 22.374 9.40066 22.374 9.96631H25.374C25.374 7.90684 23.8721 6.20105 21.9038 5.87949L21.4201 8.84025ZM22.374 9.96631C22.374 10.5965 21.8631 11.1074 21.2329 11.1074V14.1074C23.52 14.1074 25.374 12.2534 25.374 9.96631H22.374ZM21.2329 11.1074C21.04 11.1074 20.8624 11.0608 20.7066 10.9794L19.3183 13.6388C19.8925 13.9386 20.5452 14.1074 21.2329 14.1074V11.1074Z" fill="currentColor" mask="url(#path-4-inside-1_11903_236692)"/>
    <circle cx="10.875" cy="5.60742" r="2.25" stroke="currentColor" stroke-width="1.5"/>
    <circle cx="13.875" cy="14.6074" r="1" fill="currentColor"/>
    <circle cx="7.875" cy="12.6074" r="2.25" stroke="currentColor" stroke-width="1.5"/>
</svg>
