<svg id="icon" width="32" height="32" viewBox="0 0 32 32" fill="none"
    xmlns="http://www.w3.org/2000/svg">
    <path fill-rule="evenodd" clip-rule="evenodd" d="M10.3918 15.2548C10.0415 14.4315 9.67774 13.4864 9.36582 12.6574C9.26608 12.3923 9.17165 12.1391 9.08465 11.9055C9.07058 11.8678 9.0567 11.8305 9.04303 11.7938C8.82268 11.2021 8.65523 10.7524 8.57852 10.5825C8.56063 10.5429 8.54768 10.5185 8.54013 10.5111C8.53794 10.5089 8.5362 10.5082 8.53493 10.5089C8.34939 10.9578 8.17863 11.4277 8.02379 11.9175C7.94072 12.1803 7.86223 12.4488 7.7885 12.7228C7.28188 14.606 7 16.7514 7 19.1043C7 24.0172 11.0293 28 15.9998 28C20.9702 28 24.9522 24.017 24.9995 19.1043C25.0255 16.4111 23.9902 15.1769 22.9158 13.8961C21.5324 12.247 20.0842 10.5206 20.7534 5.50274C20.8162 5.03173 20.8977 4.53172 20.9996 4.00006C20.4511 3.99823 19.9355 4.04187 19.451 4.12567C13.8106 5.10117 12.3688 11.5193 11.929 15.0297C11.8914 15.3302 11.8611 15.6094 11.8361 15.862C11.804 16.187 11.7807 16.468 11.762 16.694C11.7311 17.0668 11.7126 17.2898 11.6874 17.3128C11.552 17.4431 11.3191 17.1573 11.0391 16.6392C11.0235 16.6103 11.0078 16.5808 10.9919 16.5506C10.9231 16.4194 10.8518 16.2753 10.7785 16.1208C10.6539 15.8579 10.5238 15.565 10.3918 15.2548ZM12.7275 18.3935C12.5046 18.6081 12.1921 18.7853 11.8087 18.8322C11.4437 18.8769 11.1395 18.7885 10.9355 18.696C10.572 18.5311 10.3389 18.2689 10.2362 18.1466C9.9976 17.8623 9.78932 17.4926 9.62299 17.1691C9.35319 16.6444 9.06164 15.9754 8.78133 15.2895C8.59889 16.4712 8.5 17.7463 8.5 19.1043C8.5 23.1724 11.8413 26.5 15.9998 26.5C20.1451 26.5 23.4602 23.1822 23.4996 19.0898C23.5126 17.7371 23.2134 16.9156 22.8261 16.2644C22.6185 15.9154 22.3688 15.5877 22.0672 15.2208C21.9838 15.1194 21.891 15.0087 21.793 14.8918C21.5637 14.6185 21.3058 14.3109 21.0722 14.007C20.3482 13.0654 19.6494 11.9096 19.3063 10.2152C19.0563 8.98038 19.0066 7.51694 19.2162 5.70845C18.1698 5.97628 17.3416 6.48434 16.6653 7.12774C15.608 8.13359 14.8581 9.53559 14.3347 11.0618C13.8145 12.5787 13.5493 14.1258 13.4033 15.3305C13.3307 15.9297 13.2886 16.4344 13.2575 16.8101L13.2555 16.8345C13.2413 17.0049 13.2276 17.1707 13.2138 17.2964C13.2069 17.3587 13.1961 17.449 13.1788 17.5398C13.1707 17.5823 13.1536 17.6656 13.1217 17.7627C13.1216 17.7631 13.1213 17.764 13.1209 17.7653C13.1105 17.7995 13.0138 18.1176 12.7275 18.3935Z" fill="currentColor"/>
    <path fill-rule="evenodd" clip-rule="evenodd" d="M17.9404 20.2467L17.9409 20.2449C18.1208 19.6551 18.1942 19.0807 18.1963 18.5367C18.9166 19.2605 19.5233 20.0036 19.8417 20.6415C20.1675 21.2942 20.2715 21.7796 20.3161 22.1526C20.4004 22.8569 20.2117 23.8768 19.764 24.7448C19.2928 25.6587 18.7755 25.9753 18.48 26.0106C18.143 26.0509 17.4687 25.828 16.7065 25.0421C15.9823 24.2953 15.5274 23.3843 15.4464 22.7496C15.4439 22.7226 15.4431 22.7017 15.4429 22.6859C15.4805 22.656 15.5612 22.5985 15.7241 22.5059C15.76 22.4854 15.8064 22.4601 15.8606 22.4304C16.0969 22.3013 16.4813 22.0914 16.793 21.8537C17.2402 21.5126 17.7068 21.0088 17.9404 20.2467ZM13.9552 22.9135C14.2064 25.0133 16.6018 27.746 18.6582 27.5C20.7146 27.254 22.0567 24.0742 21.8055 21.9744C21.7427 21.449 21.5946 20.7946 21.1838 19.9716C20.5204 18.6425 19.0493 17.1824 17.7713 16.1259C17.4354 15.8483 17.1129 15.5985 16.8218 15.3863C16.1651 14.9075 15.6687 14.62 15.5413 14.6353C15.4843 14.6421 15.5037 14.7251 15.5696 14.8719C15.609 14.9597 15.6649 15.0702 15.7311 15.201C15.8421 15.4202 15.9819 15.6963 16.1203 16.0168C16.248 16.3126 16.3746 16.6461 16.4764 17.0078C16.7087 17.8329 16.8121 18.8044 16.5062 19.8073C16.3012 20.4761 15.745 20.7817 15.2029 21.0795C14.5126 21.4587 13.8452 21.8254 13.9552 22.9135Z" fill="currentColor"/>
</svg>
