<svg id="icon" width="33" height="33" viewBox="0 0 33 33" fill="none"
    xmlns="http://www.w3.org/2000/svg">
    <mask id="path-1-inside-1_11903_236673" fill="white">
        <path d="M28.9077 21.8616C28.8604 26.7743 24.8784 30.7573 19.908 30.7573C14.9375 30.7573 10.9082 26.7746 10.9082 21.8616C10.9082 18.5281 11.474 15.611 12.4431 13.2663C12.5332 13.213 15.0018 20.6415 15.5956 20.0701C15.7987 19.8848 15.5643 6.72627 24.9078 6.75738C22.8766 17.3519 28.9702 15.3751 28.9077 21.8616Z"/>
    </mask>
    <path d="M28.9077 21.8616L30.4077 21.876L28.9077 21.8616ZM10.9082 21.8616H12.4082H10.9082ZM24.9078 6.75738L26.381 7.03982C26.4651 6.60138 26.3495 6.14828 26.0656 5.8037C25.7818 5.45913 25.3592 5.25887 24.9128 5.25739L24.9078 6.75738ZM12.4431 13.2663L11.6789 11.9755C11.3993 12.1411 11.181 12.393 11.0569 12.6933L12.4431 13.2663ZM15.5956 20.0701L14.5846 18.962L14.5698 18.9755L14.5554 18.9893L15.5956 20.0701ZM27.4078 21.8471C27.3684 25.9395 24.0533 29.2573 19.908 29.2573V32.2573C25.7035 32.2573 30.3524 27.6092 30.4077 21.876L27.4078 21.8471ZM19.908 29.2573C15.7495 29.2573 12.4082 25.9297 12.4082 21.8616H9.4082C9.4082 27.6194 14.1256 32.2573 19.908 32.2573V29.2573ZM12.4082 21.8616C12.4082 18.6919 12.947 15.9742 13.8294 13.8392L11.0569 12.6933C10.0011 15.2477 9.4082 18.3643 9.4082 21.8616H12.4082ZM13.2074 14.557C12.6215 14.9039 12.0527 14.7452 11.7817 14.6114C11.5409 14.4925 11.3947 14.3384 11.3475 14.2872C11.237 14.1678 11.1745 14.0585 11.1651 14.0426C11.1298 13.9825 11.1124 13.9412 11.1196 13.9572C11.1264 13.9722 11.1464 14.0195 11.1838 14.1147C11.2554 14.2971 11.3566 14.5676 11.4846 14.911C11.7364 15.5867 12.0775 16.5075 12.4353 17.4135C12.7887 18.3081 13.1785 19.2405 13.5312 19.9265C13.6975 20.25 13.9058 20.6197 14.1444 20.904C14.2471 21.0263 14.4802 21.2884 14.8437 21.4533C15.0477 21.5458 15.3519 21.6343 15.7169 21.5896C16.1003 21.5426 16.4128 21.3654 16.6357 21.1509L14.5554 18.9893C14.7413 18.8105 15.013 18.6534 15.3522 18.6118C15.673 18.5725 15.9296 18.6517 16.083 18.7212C16.232 18.7888 16.3277 18.8665 16.3691 18.9026C16.4146 18.9423 16.4389 18.9712 16.4423 18.9753C16.4472 18.9811 16.4239 18.9532 16.3731 18.8697C16.3254 18.7915 16.2673 18.6871 16.1992 18.5547C15.9192 18.0101 15.5749 17.1959 15.2256 16.3115C14.8808 15.4384 14.5508 14.5478 14.2958 13.8635C14.1704 13.5269 14.0594 13.2302 13.9764 13.0188C13.9365 12.917 13.8936 12.8108 13.8541 12.7231C13.8381 12.6877 13.8016 12.6078 13.7517 12.5229C13.735 12.4944 13.6662 12.3761 13.5507 12.2511C13.5009 12.1972 13.3525 12.0412 13.1097 11.9213C12.8367 11.7866 12.2662 11.6278 11.6789 11.9755L13.2074 14.557ZM16.6066 21.1782C16.9269 20.8859 17.0257 20.533 17.0299 20.52C17.0618 20.4229 17.0789 20.3396 17.087 20.2972C17.1043 20.2064 17.1151 20.1161 17.122 20.0537C17.1365 19.9221 17.1509 19.7464 17.1657 19.5674C17.1968 19.1917 17.2389 18.687 17.3115 18.0879C17.4575 16.8832 17.7227 15.3361 18.2429 13.8192C18.7663 12.2929 19.5162 10.8909 20.5735 9.88507C21.5944 8.91376 22.9617 8.25091 24.9028 8.25737L24.9128 5.25739C22.1822 5.2483 20.075 6.21858 18.5057 7.71154C16.9727 9.16995 16.0165 11.0633 15.4052 12.846C14.7906 14.638 14.4925 16.4133 14.3333 17.727C14.2533 18.387 14.2074 18.9404 14.1759 19.3197C14.1595 19.5182 14.1489 19.6442 14.14 19.7257C14.1351 19.7699 14.1346 19.764 14.1403 19.7338C14.1426 19.7218 14.1538 19.6628 14.1797 19.584C14.1927 19.5443 14.2188 19.4706 14.2637 19.3824C14.3012 19.3089 14.3974 19.1328 14.5846 18.962L16.6066 21.1782ZM23.4347 6.47494C22.9042 9.24174 22.8786 11.3135 23.2145 12.9725C23.5576 14.6669 24.2564 15.8228 24.9804 16.7643C25.314 17.1982 25.697 17.6396 25.9754 17.9781C26.277 18.3451 26.5267 18.6727 26.7343 19.0217C27.1216 19.6729 27.4208 20.4944 27.4078 21.8471L30.4077 21.876C30.4259 19.9855 29.9869 18.6217 29.3127 17.4882C28.9895 16.9448 28.6276 16.4802 28.2927 16.0729C27.9344 15.6371 27.6559 15.3223 27.3586 14.9357C26.8209 14.2364 26.3811 13.4945 26.1549 12.3772C25.9215 11.2244 25.8959 9.57031 26.381 7.03982L23.4347 6.47494Z" fill="currentColor" mask="url(#path-1-inside-1_11903_236673)"/>
    <mask id="path-3-inside-2_11903_236673" fill="white">
        <path d="M17.8634 25.6708C18.1146 27.7706 20.51 30.5033 22.5664 30.2573C24.6228 30.0113 25.9649 26.8315 25.7137 24.7317C25.6509 24.2064 25.5028 23.5519 25.092 22.7289C23.8609 20.2625 19.8483 17.3449 19.4495 17.3926C19.1284 17.431 21.2314 19.8861 20.4144 22.5646C19.9485 24.0851 17.667 23.7282 17.8634 25.6708Z"/>
    </mask>
    <path d="M17.8634 25.6708L16.3741 25.849L16.3724 25.8354L16.3711 25.8218L17.8634 25.6708ZM20.4144 22.5646L21.8491 23.0022L21.8486 23.004L20.4144 22.5646ZM25.092 22.7289L23.7499 23.3988L25.092 22.7289ZM19.3528 25.4927C19.4288 26.1279 19.885 27.047 20.6147 27.7994C21.3769 28.5854 22.0512 28.8083 22.3882 28.7679L22.7446 31.7467C21.0252 31.9524 19.4736 30.9319 18.4612 29.888C17.4163 28.8106 16.5493 27.3135 16.3741 25.849L19.3528 25.4927ZM22.3882 28.7679C22.6837 28.7326 23.201 28.416 23.6722 27.5022C24.1199 26.6341 24.3086 25.6142 24.2243 24.9099L27.2031 24.5535C27.37 25.949 27.0133 27.5689 26.3386 28.8772C25.6875 30.1397 24.5055 31.5361 22.7446 31.7467L22.3882 28.7679ZM19.6276 18.882C19.8834 18.8514 20.2339 18.7364 20.5231 18.4265C20.8 18.1296 20.8829 17.8009 20.9062 17.6022C20.9287 17.4101 20.9063 17.2614 20.8942 17.1951C20.8804 17.12 20.8635 17.0665 20.8562 17.0444C20.8404 16.9965 20.838 17.0034 20.9203 17.1674C21.0469 17.4195 21.289 17.8803 21.5096 18.4288C21.9473 19.5169 22.403 21.1865 21.8491 23.0022L18.9796 22.1269C19.2428 21.2642 19.0556 20.367 18.7263 19.5483C18.5634 19.1434 18.391 18.8158 18.2391 18.5131C18.1822 18.3997 18.0746 18.1875 18.0083 17.9876C17.9872 17.9239 17.8831 17.624 17.9266 17.2529C17.9523 17.0335 18.0417 16.6884 18.3296 16.3799C18.6296 16.0583 18.9955 15.9362 19.2713 15.9032L19.6276 18.882ZM21.8486 23.004C21.6151 23.7661 21.1484 24.27 20.7012 24.611C20.318 24.9032 19.8251 25.1535 19.6323 25.2632C19.3527 25.4223 19.3152 25.4777 19.3225 25.4678C19.377 25.3936 19.339 25.3534 19.3558 25.5199L16.3711 25.8218C16.2896 25.017 16.4631 24.2929 16.9047 23.6917C17.2991 23.1548 17.8243 22.8403 18.1488 22.6557C18.56 22.4217 18.7126 22.3547 18.8821 22.2254C18.9414 22.1802 18.9641 22.1533 18.9709 22.1444C18.9746 22.1396 18.9765 22.1372 18.9802 22.1251L21.8486 23.004ZM24.2243 24.9099C24.1797 24.537 24.0757 24.0516 23.7499 23.3988L26.4341 22.059C26.9299 23.0523 27.122 23.8758 27.2031 24.5535L24.2243 24.9099ZM23.7499 23.3988C23.2755 22.4483 22.1606 21.2639 20.984 20.2581C20.4177 19.7741 19.885 19.3718 19.4859 19.1019C19.2833 18.9649 19.1371 18.8769 19.0509 18.831C19.0053 18.8067 19.0049 18.8095 19.0383 18.822C19.0552 18.8284 19.1053 18.8465 19.179 18.8625C19.2367 18.8751 19.4052 18.9086 19.6276 18.882L19.2713 15.9032C19.6893 15.8532 20.0311 15.9903 20.0918 16.0131C20.2284 16.0643 20.3563 16.1273 20.4609 16.183C20.6754 16.2972 20.9177 16.4486 21.1666 16.6169C21.6705 16.9577 22.2927 17.4301 22.9333 17.9778C24.1705 19.0354 25.6775 20.5431 26.4341 22.059L23.7499 23.3988Z" fill="currentColor" mask="url(#path-3-inside-2_11903_236673)"/>
    <path d="M9.6582 10.9283C9.6582 12.6436 8.30038 14.0073 6.6582 14.0073C5.01602 14.0073 3.6582 12.6436 3.6582 10.9283C3.6582 10.5395 3.81775 9.87025 4.12492 9.01218C4.42273 8.18028 4.82914 7.2514 5.25593 6.37951C5.68295 5.50717 6.1224 4.70814 6.4817 4.13504C6.54438 4.03506 6.60334 3.94403 6.6582 3.86216C6.71306 3.94403 6.77202 4.03506 6.8347 4.13504C7.194 4.70814 7.63346 5.50717 8.06047 6.37951C8.48727 7.2514 8.89368 8.18028 9.19148 9.01218C9.49865 9.87025 9.6582 10.5395 9.6582 10.9283Z" stroke="currentColor" stroke-width="1.5"/>
</svg>
