<svg id="icon" width="33" height="33" viewBox="0 0 33 33" fill="none"
    xmlns="http://www.w3.org/2000/svg">
    <mask id="path-1-inside-1_11903_236637" fill="white">
        <path d="M28.9077 22.0066C28.8604 26.9194 24.8784 30.9023 19.908 30.9023C14.9375 30.9023 10.9082 26.9196 10.9082 22.0066C10.9082 18.6731 11.474 15.756 12.4431 13.4113C12.5332 13.358 15.0018 20.7865 15.5956 20.2151C15.7987 20.0298 15.5643 6.87129 24.9078 6.9024C22.8766 17.497 28.9702 15.5201 28.9077 22.0066Z"/>
    </mask>
    <path d="M28.9077 22.0066L30.4077 22.0211L28.9077 22.0066ZM10.9082 22.0066H12.4082H10.9082ZM24.9078 6.9024L26.381 7.18484C26.4651 6.7464 26.3495 6.2933 26.0656 5.94872C25.7818 5.60415 25.3592 5.40389 24.9128 5.40241L24.9078 6.9024ZM12.4431 13.4113L11.6789 12.1206C11.3993 12.2861 11.181 12.538 11.0569 12.8383L12.4431 13.4113ZM15.5956 20.2151L14.5846 19.107L14.5698 19.1205L14.5554 19.1343L15.5956 20.2151ZM27.4078 21.9922C27.3684 26.0845 24.0533 29.4023 19.908 29.4023V32.4023C25.7035 32.4023 30.3524 27.7542 30.4077 22.0211L27.4078 21.9922ZM19.908 29.4023C15.7495 29.4023 12.4082 26.0748 12.4082 22.0066H9.4082C9.4082 27.7644 14.1256 32.4023 19.908 32.4023V29.4023ZM12.4082 22.0066C12.4082 18.8369 12.947 16.1192 13.8294 13.9843L11.0569 12.8383C10.0011 15.3927 9.4082 18.5093 9.4082 22.0066H12.4082ZM13.2074 14.702C12.6215 15.0489 12.0527 14.8902 11.7817 14.7564C11.5409 14.6376 11.3947 14.4834 11.3475 14.4322C11.237 14.3128 11.1745 14.2035 11.1651 14.1876C11.1298 14.1276 11.1124 14.0863 11.1196 14.1022C11.1264 14.1172 11.1464 14.1646 11.1838 14.2598C11.2554 14.4422 11.3566 14.7126 11.4846 15.056C11.7364 15.7317 12.0775 16.6525 12.4353 17.5585C12.7887 18.4531 13.1785 19.3856 13.5312 20.0715C13.6975 20.395 13.9058 20.7647 14.1444 21.049C14.2471 21.1713 14.4802 21.4335 14.8437 21.5983C15.0477 21.6909 15.3519 21.7793 15.7169 21.7346C16.1003 21.6876 16.4128 21.5105 16.6357 21.2959L14.5554 19.1343C14.7413 18.9555 15.013 18.7984 15.3522 18.7568C15.673 18.7176 15.9296 18.7967 16.083 18.8662C16.232 18.9338 16.3277 19.0115 16.3691 19.0476C16.4146 19.0873 16.4389 19.1162 16.4423 19.1203C16.4472 19.1261 16.4239 19.0982 16.3731 19.0147C16.3254 18.9365 16.2673 18.8321 16.1992 18.6997C15.9192 18.1551 15.5749 17.3409 15.2256 16.4565C14.8808 15.5834 14.5508 14.6928 14.2958 14.0085C14.1704 13.6719 14.0594 13.3752 13.9764 13.1638C13.9365 13.0621 13.8936 12.9558 13.8541 12.8681C13.8381 12.8328 13.8016 12.7529 13.7517 12.6679C13.735 12.6395 13.6662 12.5212 13.5507 12.3962C13.5009 12.3422 13.3525 12.1862 13.1097 12.0664C12.8367 11.9316 12.2662 11.7728 11.6789 12.1206L13.2074 14.702ZM16.6066 21.3232C16.9269 21.031 17.0257 20.678 17.0299 20.665C17.0618 20.5679 17.0789 20.4846 17.087 20.4422C17.1043 20.3514 17.1151 20.2611 17.122 20.1988C17.1365 20.0671 17.1509 19.8914 17.1657 19.7125C17.1968 19.3368 17.2389 18.8321 17.3115 18.2329C17.4575 17.0282 17.7227 15.4811 18.2429 13.9642C18.7663 12.4379 19.5162 11.0359 20.5735 10.0301C21.5944 9.05878 22.9617 8.39593 24.9028 8.40239L24.9128 5.40241C22.1822 5.39332 20.075 6.3636 18.5057 7.85656C16.9727 9.31497 16.0165 11.2083 15.4052 12.991C14.7906 14.783 14.4925 16.5583 14.3333 17.872C14.2533 18.532 14.2074 19.0855 14.1759 19.4647C14.1595 19.6632 14.1489 19.7893 14.14 19.8707C14.1351 19.9149 14.1346 19.909 14.1403 19.8789C14.1426 19.8668 14.1538 19.8078 14.1797 19.729C14.1927 19.6893 14.2188 19.6156 14.2637 19.5274C14.3012 19.4539 14.3974 19.2778 14.5846 19.107L16.6066 21.3232ZM23.4347 6.61996C22.9042 9.38676 22.8786 11.4585 23.2145 13.1175C23.5576 14.8119 24.2564 15.9678 24.9804 16.9094C25.314 17.3432 25.697 17.7846 25.9754 18.1232C26.277 18.4901 26.5267 18.8177 26.7343 19.1667C27.1216 19.8179 27.4208 20.6395 27.4078 21.9922L30.4077 22.0211C30.4259 20.1305 29.9869 18.7667 29.3127 17.6332C28.9895 17.0898 28.6276 16.6252 28.2927 16.2179C27.9344 15.7822 27.6559 15.4674 27.3586 15.0807C26.8209 14.3814 26.3811 13.6395 26.1549 12.5222C25.9215 11.3694 25.8959 9.71533 26.381 7.18484L23.4347 6.61996Z" fill="currentColor" mask="url(#path-1-inside-1_11903_236637)"/>
    <mask id="path-3-inside-2_11903_236637" fill="white">
        <path d="M17.8634 25.8158C18.1146 27.9156 20.51 30.6483 22.5664 30.4023C24.6228 30.1563 25.9649 26.9765 25.7137 24.8767C25.6509 24.3514 25.5028 23.6969 25.092 22.8739C23.8609 20.4075 19.8483 17.4899 19.4495 17.5376C19.1284 17.576 21.2314 20.0311 20.4144 22.7096C19.9485 24.2301 17.667 23.8732 17.8634 25.8158Z"/>
    </mask>
    <path d="M17.8634 25.8158L16.3741 25.994L16.3724 25.9804L16.3711 25.9668L17.8634 25.8158ZM20.4144 22.7096L21.8491 23.1472L21.8486 23.149L20.4144 22.7096ZM25.092 22.8739L23.7499 23.5438L25.092 22.8739ZM19.3528 25.6377C19.4288 26.2729 19.885 27.1921 20.6147 27.9445C21.3769 28.7304 22.0512 28.9533 22.3882 28.913L22.7446 31.8917C21.0252 32.0974 19.4736 31.0769 18.4612 30.033C17.4163 28.9556 16.5493 27.4586 16.3741 25.994L19.3528 25.6377ZM22.3882 28.913C22.6837 28.8776 23.201 28.561 23.6722 27.6472C24.1199 26.7791 24.3086 25.7592 24.2243 25.0549L27.2031 24.6986C27.37 26.094 27.0133 27.7139 26.3386 29.0222C25.6875 30.2848 24.5055 31.6811 22.7446 31.8917L22.3882 28.913ZM19.6276 19.027C19.8834 18.9964 20.2339 18.8814 20.5231 18.5715C20.8 18.2747 20.8829 17.9459 20.9062 17.7472C20.9287 17.5551 20.9063 17.4064 20.8942 17.3401C20.8804 17.265 20.8635 17.2115 20.8562 17.1894C20.8404 17.1415 20.838 17.1484 20.9203 17.3124C21.0469 17.5645 21.289 18.0253 21.5096 18.5738C21.9473 19.6619 22.403 21.3315 21.8491 23.1472L18.9796 22.272C19.2428 21.4092 19.0556 20.512 18.7263 19.6933C18.5634 19.2884 18.391 18.9608 18.2391 18.6581C18.1822 18.5447 18.0746 18.3325 18.0083 18.1326C17.9872 18.0689 17.8831 17.769 17.9266 17.3979C17.9523 17.1785 18.0417 16.8335 18.3296 16.5249C18.6296 16.2033 18.9955 16.0812 19.2713 16.0482L19.6276 19.027ZM21.8486 23.149C21.6151 23.9112 21.1484 24.415 20.7012 24.756C20.318 25.0482 19.8251 25.2985 19.6323 25.4082C19.3527 25.5673 19.3152 25.6227 19.3225 25.6128C19.377 25.5386 19.339 25.4984 19.3558 25.6649L16.3711 25.9668C16.2896 25.162 16.4631 24.4379 16.9047 23.8368C17.2991 23.2998 17.8243 22.9853 18.1488 22.8007C18.56 22.5667 18.7126 22.4997 18.8821 22.3705C18.9414 22.3252 18.9641 22.2984 18.9709 22.2895C18.9746 22.2846 18.9765 22.2822 18.9802 22.2701L21.8486 23.149ZM24.2243 25.0549C24.1797 24.682 24.0757 24.1966 23.7499 23.5438L26.4341 22.204C26.9299 23.1973 27.122 24.0208 27.2031 24.6986L24.2243 25.0549ZM23.7499 23.5438C23.2755 22.5933 22.1606 21.409 20.984 20.4031C20.4177 19.9191 19.885 19.5169 19.4859 19.2469C19.2833 19.1099 19.1371 19.0219 19.0509 18.976C19.0053 18.9517 19.0049 18.9545 19.0383 18.9671C19.0552 18.9734 19.1053 18.9915 19.179 19.0075C19.2367 19.0201 19.4052 19.0536 19.6276 19.027L19.2713 16.0482C19.6893 15.9982 20.0311 16.1353 20.0918 16.1581C20.2284 16.2093 20.3563 16.2723 20.4609 16.328C20.6754 16.4422 20.9177 16.5936 21.1666 16.7619C21.6705 17.1027 22.2927 17.5751 22.9333 18.1228C24.1705 19.1804 25.6775 20.6881 26.4341 22.204L23.7499 23.5438Z" fill="currentColor" mask="url(#path-3-inside-2_11903_236637)"/>
    <path d="M9.6582 11.0733C9.6582 12.7886 8.30038 14.1523 6.6582 14.1523C5.01602 14.1523 3.6582 12.7886 3.6582 11.0733C3.6582 10.6845 3.81775 10.0153 4.12492 9.1572C4.42273 8.3253 4.82914 7.39642 5.25593 6.52453C5.68295 5.65219 6.1224 4.85316 6.4817 4.28006C6.54438 4.18008 6.60334 4.08904 6.6582 4.00718C6.71306 4.08904 6.77202 4.18008 6.8347 4.28006C7.194 4.85316 7.63346 5.65219 8.06047 6.52453C8.48727 7.39642 8.89368 8.3253 9.19148 9.1572C9.49865 10.0153 9.6582 10.6845 9.6582 11.0733Z" stroke="currentColor" stroke-width="1.5"/>
</svg>
