<svg id="icon" width="33" height="33" viewBox="0 0 33 33" fill="none"
    xmlns="http://www.w3.org/2000/svg">
    <mask id="path-1-inside-1_11903_236657" fill="white">
        <path d="M28.9077 21.8621C28.8604 26.7748 24.8784 30.7578 19.908 30.7578C14.9375 30.7578 10.9082 26.7751 10.9082 21.8621C10.9082 18.5286 11.474 15.6114 12.4431 13.2668C12.5332 13.2134 15.0018 20.642 15.5956 20.0706C15.7987 19.8852 15.5643 6.72676 24.9078 6.75787C22.8766 17.3524 28.9702 15.3756 28.9077 21.8621Z"/>
    </mask>
    <path d="M28.9077 21.8621L30.4077 21.8765L28.9077 21.8621ZM10.9082 21.8621H12.4082H10.9082ZM24.9078 6.75787L26.381 7.0403C26.4651 6.60187 26.3495 6.14877 26.0656 5.80419C25.7818 5.45961 25.3592 5.25936 24.9128 5.25788L24.9078 6.75787ZM12.4431 13.2668L11.6789 11.976C11.3993 12.1416 11.181 12.3935 11.0569 12.6938L12.4431 13.2668ZM15.5956 20.0706L14.5846 18.9625L14.5698 18.976L14.5554 18.9898L15.5956 20.0706ZM27.4078 21.8476C27.3684 25.94 24.0533 29.2578 19.908 29.2578V32.2578C25.7035 32.2578 30.3524 27.6097 30.4077 21.8765L27.4078 21.8476ZM19.908 29.2578C15.7495 29.2578 12.4082 25.9302 12.4082 21.8621H9.4082C9.4082 27.6199 14.1256 32.2578 19.908 32.2578V29.2578ZM12.4082 21.8621C12.4082 18.6924 12.947 15.9747 13.8294 13.8397L11.0569 12.6938C10.0011 15.2482 9.4082 18.3648 9.4082 21.8621H12.4082ZM13.2074 14.5575C12.6215 14.9044 12.0527 14.7457 11.7817 14.6119C11.5409 14.493 11.3947 14.3389 11.3475 14.2877C11.237 14.1682 11.1745 14.059 11.1651 14.043C11.1298 13.983 11.1124 13.9417 11.1196 13.9577C11.1264 13.9727 11.1464 14.02 11.1838 14.1152C11.2554 14.2976 11.3566 14.5681 11.4846 14.9115C11.7364 15.5872 12.0775 16.508 12.4353 17.414C12.7887 18.3086 13.1785 19.241 13.5312 19.927C13.6975 20.2504 13.9058 20.6202 14.1444 20.9044C14.2471 21.0268 14.4802 21.2889 14.8437 21.4538C15.0477 21.5463 15.3519 21.6347 15.7169 21.5901C16.1003 21.5431 16.4128 21.3659 16.6357 21.1513L14.5554 18.9898C14.7413 18.8109 15.013 18.6538 15.3522 18.6123C15.673 18.573 15.9296 18.6522 16.083 18.7217C16.232 18.7893 16.3277 18.8669 16.3691 18.9031C16.4146 18.9428 16.4389 18.9717 16.4423 18.9758C16.4472 18.9816 16.4239 18.9537 16.3731 18.8702C16.3254 18.792 16.2673 18.6876 16.1992 18.5551C15.9192 18.0106 15.5749 17.1964 15.2256 16.3119C14.8808 15.4389 14.5508 14.5483 14.2958 13.864C14.1704 13.5274 14.0594 13.2307 13.9764 13.0192C13.9365 12.9175 13.8936 12.8113 13.8541 12.7236C13.8381 12.6882 13.8016 12.6083 13.7517 12.5234C13.735 12.4949 13.6662 12.3766 13.5507 12.2516C13.5009 12.1977 13.3525 12.0417 13.1097 11.9218C12.8367 11.7871 12.2662 11.6283 11.6789 11.976L13.2074 14.5575ZM16.6066 21.1787C16.9269 20.8864 17.0257 20.5334 17.0299 20.5205C17.0618 20.4234 17.0789 20.3401 17.087 20.2977C17.1043 20.2069 17.1151 20.1165 17.122 20.0542C17.1365 19.9225 17.1509 19.7469 17.1657 19.5679C17.1968 19.1922 17.2389 18.6875 17.3115 18.0884C17.4575 16.8837 17.7227 15.3365 18.2429 13.8196C18.7663 12.2934 19.5162 10.8914 20.5735 9.88556C21.5944 8.91425 22.9617 8.2514 24.9028 8.25786L24.9128 5.25788C22.1822 5.24878 20.075 6.21907 18.5057 7.71203C16.9727 9.17043 16.0165 11.0638 15.4052 12.8465C14.7906 14.6385 14.4925 16.4138 14.3333 17.7275C14.2533 18.3875 14.2074 18.9409 14.1759 19.3202C14.1595 19.5187 14.1489 19.6447 14.14 19.7261C14.1351 19.7704 14.1346 19.7645 14.1403 19.7343C14.1426 19.7223 14.1538 19.6633 14.1797 19.5845C14.1927 19.5447 14.2188 19.4711 14.2637 19.3829C14.3012 19.3094 14.3974 19.1333 14.5846 18.9625L16.6066 21.1787ZM23.4347 6.47543C22.9042 9.24222 22.8786 11.314 23.2145 12.973C23.5576 14.6674 24.2564 15.8232 24.9804 16.7648C25.314 17.1987 25.697 17.6401 25.9754 17.9786C26.277 18.3456 26.5267 18.6732 26.7343 19.0222C27.1216 19.6734 27.4208 20.4949 27.4078 21.8476L30.4077 21.8765C30.4259 19.986 29.9869 18.6222 29.3127 17.4887C28.9895 16.9453 28.6276 16.4807 28.2927 16.0734C27.9344 15.6376 27.6559 15.3228 27.3586 14.9362C26.8209 14.2369 26.3811 13.495 26.1549 12.3776C25.9215 11.2249 25.8959 9.57079 26.381 7.0403L23.4347 6.47543Z" fill="currentColor" mask="url(#path-1-inside-1_11903_236657)"/>
    <mask id="path-3-inside-2_11903_236657" fill="white">
        <path d="M17.8634 25.6713C18.1146 27.7711 20.51 30.5038 22.5664 30.2578C24.6228 30.0118 25.9649 26.832 25.7137 24.7322C25.6509 24.2068 25.5028 23.5524 25.092 22.7294C23.8609 20.2629 19.8483 17.3454 19.4495 17.3931C19.1284 17.4315 21.2314 19.8866 20.4144 22.5651C19.9485 24.0856 17.667 23.7287 17.8634 25.6713Z"/>
    </mask>
    <path d="M17.8634 25.6713L16.3741 25.8495L16.3724 25.8359L16.3711 25.8223L17.8634 25.6713ZM20.4144 22.5651L21.8491 23.0027L21.8486 23.0045L20.4144 22.5651ZM25.092 22.7294L23.7499 23.3993L25.092 22.7294ZM19.3528 25.4931C19.4288 26.1284 19.885 27.0475 20.6147 27.7999C21.3769 28.5858 22.0512 28.8087 22.3882 28.7684L22.7446 31.7472C21.0252 31.9529 19.4736 30.9324 18.4612 29.8885C17.4163 28.8111 16.5493 27.314 16.3741 25.8495L19.3528 25.4931ZM22.3882 28.7684C22.6837 28.7331 23.201 28.4165 23.6722 27.5027C24.1199 26.6346 24.3086 25.6147 24.2243 24.9104L27.2031 24.554C27.37 25.9495 27.0133 27.5694 26.3386 28.8777C25.6875 30.1402 24.5055 31.5365 22.7446 31.7472L22.3882 28.7684ZM19.6276 18.8824C19.8834 18.8518 20.2339 18.7369 20.5231 18.427C20.8 18.1301 20.8829 17.8014 20.9062 17.6027C20.9287 17.4106 20.9063 17.2618 20.8942 17.1955C20.8804 17.1205 20.8635 17.067 20.8562 17.0449C20.8404 16.997 20.838 17.0039 20.9203 17.1678C21.0469 17.42 21.289 17.8808 21.5096 18.4293C21.9473 19.5174 22.403 21.187 21.8491 23.0027L18.9796 22.1274C19.2428 21.2647 19.0556 20.3674 18.7263 19.5488C18.5634 19.1439 18.391 18.8163 18.2391 18.5136C18.1822 18.4002 18.0746 18.188 18.0083 17.9881C17.9872 17.9244 17.8831 17.6245 17.9266 17.2534C17.9523 17.034 18.0417 16.6889 18.3296 16.3804C18.6296 16.0588 18.9955 15.9367 19.2713 15.9037L19.6276 18.8824ZM21.8486 23.0045C21.6151 23.7666 21.1484 24.2705 20.7012 24.6115C20.318 24.9037 19.8251 25.154 19.6323 25.2637C19.3527 25.4227 19.3152 25.4782 19.3225 25.4683C19.377 25.3941 19.339 25.3539 19.3558 25.5204L16.3711 25.8223C16.2896 25.0174 16.4631 24.2934 16.9047 23.6922C17.2991 23.1553 17.8243 22.8407 18.1488 22.6561C18.56 22.4222 18.7126 22.3552 18.8821 22.2259C18.9414 22.1807 18.9641 22.1538 18.9709 22.1449C18.9746 22.1401 18.9765 22.1377 18.9802 22.1256L21.8486 23.0045ZM24.2243 24.9104C24.1797 24.5375 24.0757 24.052 23.7499 23.3993L26.4341 22.0595C26.9299 23.0527 27.122 23.8762 27.2031 24.554L24.2243 24.9104ZM23.7499 23.3993C23.2755 22.4487 22.1606 21.2644 20.984 20.2586C20.4177 19.7745 19.885 19.3723 19.4859 19.1024C19.2833 18.9654 19.1371 18.8774 19.0509 18.8315C19.0053 18.8072 19.0049 18.81 19.0383 18.8225C19.0552 18.8289 19.1053 18.847 19.179 18.863C19.2367 18.8756 19.4052 18.909 19.6276 18.8824L19.2713 15.9037C19.6893 15.8537 20.0311 15.9908 20.0918 16.0135C20.2284 16.0648 20.3563 16.1278 20.4609 16.1835C20.6754 16.2977 20.9177 16.449 21.1666 16.6174C21.6705 16.9582 22.2927 17.4306 22.9333 17.9782C24.1705 19.0359 25.6775 20.5436 26.4341 22.0595L23.7499 23.3993Z" fill="currentColor" mask="url(#path-3-inside-2_11903_236657)"/>
    <path d="M9.6582 10.9288C9.6582 12.6441 8.30038 14.0078 6.6582 14.0078C5.01602 14.0078 3.6582 12.6441 3.6582 10.9288C3.6582 10.54 3.81775 9.87074 4.12492 9.01267C4.42273 8.18077 4.82914 7.25189 5.25593 6.38C5.68295 5.50766 6.1224 4.70862 6.4817 4.13552C6.54438 4.03555 6.60334 3.94451 6.6582 3.86264C6.71306 3.94451 6.77202 4.03555 6.8347 4.13552C7.194 4.70862 7.63346 5.50766 8.06047 6.38C8.48727 7.25189 8.89368 8.18077 9.19148 9.01267C9.49865 9.87074 9.6582 10.54 9.6582 10.9288Z" stroke="currentColor" stroke-width="1.5"/>
</svg>
