<svg id="icon" width="33" height="33" viewBox="0 0 33 33" fill="none"
    xmlns="http://www.w3.org/2000/svg">
    <circle cx="16.9082" cy="16.6074" r="13.25" stroke="currentColor" stroke-width="1.5"/>
    <path fill-rule="evenodd" clip-rule="evenodd" d="M12.4434 19.3757C12.4434 20.4806 12.7908 21.4026 13.4921 22.1285C14.1922 22.8531 15.1393 23.2767 16.3191 23.4091L17.5497 23.4283L17.5636 23.4273C18.3927 23.3672 19.0946 23.1623 19.662 22.8047C20.2335 22.452 20.6653 22.0162 20.9505 21.4954C21.2332 20.9792 21.3752 20.4304 21.3752 19.8512C21.3752 19.1392 21.2366 18.5392 20.9478 18.0614C20.6752 17.5909 20.2915 17.2083 19.8006 16.9138C19.3209 16.626 18.7834 16.3739 18.1879 16.1595L18.168 16.1551C18.069 16.1331 17.9765 16.1058 17.8901 16.0734C17.8309 16.0512 17.7716 16.0312 17.7122 16.0134V12.0851C18.1549 12.2288 18.4823 12.4661 18.7056 12.7917L18.7069 12.7935C18.972 13.1692 19.1002 13.5543 19.1002 13.9516V14.1117H20.9723L20.9701 13.9495C20.9579 13.019 20.6442 12.2227 20.0284 11.5699C19.4115 10.9161 18.5883 10.5313 17.5711 10.4102L16.3369 10.4095L16.3224 10.4109C15.2598 10.5075 14.4044 10.8729 13.7736 11.516C13.1552 12.1592 12.854 12.9638 12.866 13.9174C12.8662 14.7366 13.1058 15.4174 13.5956 15.9449L13.5969 15.9463C14.0792 16.4533 14.81 16.8694 15.7738 17.2026L15.7822 17.205C15.8576 17.2265 15.9334 17.2536 16.0097 17.2863L16.0215 17.2913L16.0339 17.2944C16.0833 17.3068 16.1309 17.3191 16.1768 17.3314V21.7821C15.5872 21.6328 15.1411 21.3539 14.8267 20.9519C14.4842 20.4872 14.3133 19.9635 14.3133 19.3757V19.2156H12.4434V19.3757ZM14.7183 13.7755C14.7183 13.2704 14.8707 12.8793 15.1646 12.5855L15.1665 12.5835C15.4297 12.3109 15.7643 12.1259 16.1768 12.0317V15.4802C15.7402 15.3044 15.3958 15.106 15.1389 14.8874C14.8657 14.6439 14.7183 14.2824 14.7183 13.7755ZM19.5229 19.9392C19.5229 20.4249 19.3519 20.8431 19.0045 21.2014L19.0027 21.2032C18.7022 21.5232 18.2767 21.7364 17.7122 21.8324V17.842C18.2244 18.0357 18.6468 18.2718 18.9824 18.5483C19.3337 18.8376 19.5229 19.2899 19.5229 19.9392Z" fill="currentColor"/>
    <rect x="16.1367" y="6.60742" width="1.5" height="20" rx="0.75" fill="currentColor"/>
</svg>
