<svg id="icon" width="33" height="33" viewBox="0 0 33 33" fill="none"
    xmlns="http://www.w3.org/2000/svg">
    <rect x="25.0195" y="4.22852" width="3" height="10" fill="currentColor"/>
    <rect x="18.0195" y="14.2285" width="3" height="10" transform="rotate(-90 18.0195 14.2285)" fill="currentColor"/>
    <path d="M25.8945 12.3848C25.0178 9.72609 22.6433 7.92171 20.3997 6.61708C17.7745 5.09054 14.5328 4.65186 11.4219 5.67766C8.51632 6.63578 6.27892 8.68879 5.01664 11.2278" stroke="currentColor" stroke-width="3"/>
    <rect x="4.99414" y="28.2793" width="3" height="10" transform="rotate(180 4.99414 28.2793)" fill="currentColor"/>
    <rect x="11.9941" y="18.2793" width="3" height="10" transform="rotate(90 11.9941 18.2793)" fill="currentColor"/>
    <path d="M4.11914 20.123C4.99583 22.7817 7.37032 24.5861 9.61395 25.8907C12.2392 27.4173 15.4808 27.856 18.5917 26.8302C21.4973 25.872 23.7347 23.819 24.997 21.28" stroke="currentColor" stroke-width="3"/>
</svg>
