<svg id="icon" width="33" height="33" viewBox="0 0 33 33" fill="none"
    xmlns="http://www.w3.org/2000/svg">
    <path d="M26.8571 3.227C26.8718 3.3694 26.887 3.53641 26.9008 3.72446C26.9493 4.38818 26.9789 5.30693 26.9042 6.3273C26.7524 8.39872 26.181 10.7428 24.6278 12.2961C23.0496 13.8742 20.6622 14.6432 18.6046 14.8874C17.584 15.0085 16.6897 14.9947 16.074 14.9055C15.8624 14.8749 15.7028 14.8379 15.5905 14.803C15.59 14.7834 15.5895 14.7632 15.589 14.7425C15.5696 13.9888 15.5321 12.5253 15.7294 10.8752C15.9717 8.84841 16.5508 6.74399 17.7929 5.45136C19.3462 3.90181 21.6875 3.33154 23.7567 3.17989C24.7771 3.1051 25.6959 3.13471 26.3596 3.18328C26.5476 3.19704 26.7147 3.21228 26.8571 3.227Z" stroke="currentColor" stroke-width="1.5"/>
    <rect x="14.832" y="14.6074" width="1.5" height="16" fill="currentColor"/>
    <path d="M15.9332 14.9157C15.9332 14.9157 17.4386 10.9503 19.9391 8.5133C21.4921 6.99969 23.4012 6.91688 23.4012 6.91688" stroke="currentColor" stroke-width="1.5" stroke-linecap="round"/>
    <path d="M4.3031 13.227C4.28839 13.3694 4.27315 13.5364 4.25938 13.7245C4.21081 14.3882 4.18121 15.3069 4.25599 16.3273C4.4078 18.3987 4.97912 20.7428 6.53239 22.2961C8.11054 23.8742 10.4979 24.6432 12.5555 24.8874C13.5762 25.0085 14.4705 24.9947 15.0861 24.9055C15.2977 24.8749 15.4574 24.8379 15.5696 24.803C15.5701 24.7834 15.5706 24.7632 15.5712 24.7425C15.5905 23.9888 15.6281 22.5253 15.4308 20.8752C15.1885 18.8484 14.6094 16.744 13.3673 15.4514C11.814 13.9018 9.47263 13.3315 7.40341 13.1799C6.38303 13.1051 5.46429 13.1347 4.80057 13.1833C4.61251 13.197 4.4455 13.2123 4.3031 13.227Z" stroke="currentColor" stroke-width="1.5"/>
    <path d="M15.0219 24.9175C15.0219 24.9175 13.5712 20.8546 11.0707 18.4176C9.51769 16.9039 7.5539 16.9188 7.5539 16.9188" stroke="currentColor" stroke-width="1.5" stroke-linecap="round"/>
</svg>
