<svg id="icon" width="33" height="33" viewBox="0 0 33 33" fill="none"
    xmlns="http://www.w3.org/2000/svg">
    <circle cx="16.9082" cy="16.8086" r="5.25" stroke="currentColor" stroke-width="1.5"/>
    <path d="M29.9082 17.5586C30.3224 17.5586 30.6582 17.2228 30.6582 16.8086C30.6582 16.3944 30.3224 16.0586 29.9082 16.0586V17.5586ZM24.9082 17.5586H29.9082V16.0586H24.9082V17.5586Z" fill="currentColor"/>
    <path d="M16.1582 29.8086C16.1582 30.2228 16.494 30.5586 16.9082 30.5586C17.3224 30.5586 17.6582 30.2228 17.6582 29.8086L16.1582 29.8086ZM16.1582 24.8086L16.1582 29.8086L17.6582 29.8086L17.6582 24.8086L16.1582 24.8086Z" fill="currentColor"/>
    <path d="M17.6582 3.80859C17.6582 3.39438 17.3224 3.05859 16.9082 3.05859C16.494 3.05859 16.1582 3.39438 16.1582 3.80859L17.6582 3.80859ZM16.1582 3.80859L16.1582 8.80859L17.6582 8.80859L17.6582 3.80859L16.1582 3.80859Z" fill="currentColor"/>
    <path d="M3.9082 16.0586C3.49399 16.0586 3.1582 16.3944 3.1582 16.8086C3.1582 17.2228 3.49399 17.5586 3.9082 17.5586L3.9082 16.0586ZM8.9082 16.0586L3.9082 16.0586L3.9082 17.5586L8.9082 17.5586L8.9082 16.0586Z" fill="currentColor"/>
    <path d="M25.5697 26.5307C25.8626 26.8236 26.3374 26.8236 26.6303 26.5307C26.9232 26.2378 26.9232 25.7629 26.6303 25.47L25.5697 26.5307ZM22.0341 22.9952L25.5697 26.5307L26.6303 25.47L23.0948 21.9345L22.0341 22.9952Z" fill="currentColor"/>
    <path d="M7.18609 25.47C6.8932 25.7629 6.8932 26.2378 7.18609 26.5307C7.47898 26.8236 7.95386 26.8236 8.24675 26.5307L7.18609 25.47ZM10.7216 21.9345L7.18609 25.47L8.24675 26.5307L11.7823 22.9952L10.7216 21.9345Z" fill="currentColor"/>
    <path d="M26.6319 8.14752C26.9248 7.85462 26.9248 7.37975 26.6319 7.08686C26.339 6.79396 25.8641 6.79396 25.5712 7.08686L26.6319 8.14752ZM25.5712 7.08686L22.0357 10.6224L23.0964 11.6831L26.6319 8.14752L25.5712 7.08686Z" fill="currentColor"/>
    <path d="M8.24675 7.08648C7.95386 6.79359 7.47898 6.79359 7.18609 7.08648C6.8932 7.37937 6.8932 7.85425 7.18609 8.14714L8.24675 7.08648ZM11.7823 10.622L8.24675 7.08648L7.18609 8.14714L10.7216 11.6827L11.7823 10.622Z" fill="currentColor"/>
</svg>
