<svg id="icon" width="33" height="33" viewBox="0 0 33 33" fill="none"
    xmlns="http://www.w3.org/2000/svg">
    <path d="M12.9082 19.8086L20.9082 13.8086L28.9082 19.8086V29.8099H12.9082V19.8086Z" stroke="currentColor" stroke-width="1.5"/>
    <path d="M4.64258 29.8672L31.1108 29.8672" stroke="currentColor" stroke-width="1.5"/>
    <path d="M10.9633 20.2048C10.6298 20.4505 10.5587 20.92 10.8044 21.2535C11.0501 21.587 11.5196 21.6581 11.8531 21.4124L10.9633 20.2048ZM20.4633 13.2048L10.9633 20.2048L11.8531 21.4124L21.3531 14.4124L20.4633 13.2048Z" fill="currentColor"/>
    <circle cx="7.9082" cy="7.80859" r="3.25" stroke="currentColor" stroke-width="1.5"/>
    <path d="M13.1604 14.1175C13.4539 14.4097 13.9288 14.4086 14.221 14.115C14.5132 13.8214 14.5121 13.3466 14.2185 13.0544L13.1604 14.1175ZM11.1714 12.1378L13.1604 14.1175L14.2185 13.0544L12.2295 11.0746L11.1714 12.1378Z" fill="currentColor"/>
    <path d="M7.1582 15.637C7.1582 16.0512 7.49399 16.387 7.9082 16.387C8.32242 16.387 8.6582 16.0512 8.6582 15.637L7.1582 15.637ZM7.1582 12.8086L7.1582 15.637L8.6582 15.637L8.6582 12.8086L7.1582 12.8086Z" fill="currentColor"/>
    <path d="M15.7366 8.55859C16.1508 8.55859 16.4866 8.22281 16.4866 7.80859C16.4866 7.39438 16.1508 7.05859 15.7366 7.05859V8.55859ZM12.9082 8.55859H15.7366V7.05859H12.9082V8.55859Z" fill="currentColor"/>
    <path d="M30.8531 20.2048C31.1866 20.4505 31.2577 20.92 31.012 21.2535C30.7663 21.587 30.2968 21.6581 29.9633 21.4124L30.8531 20.2048ZM21.3531 13.2048L30.8531 20.2048L29.9633 21.4124L20.4633 14.4124L21.3531 13.2048Z" fill="currentColor"/>
    <rect x="17.9082" y="22.8086" width="6" height="7" stroke="currentColor" stroke-width="1.5"/>
</svg>
