<svg id="icon" width="33" height="33" viewBox="0 0 33 33" fill="none"
    xmlns="http://www.w3.org/2000/svg">
    <path d="M6.56641 7.60742H27.9359C29.0419 7.60742 29.938 8.50522 29.9359 9.6113L29.9085 23.7168" stroke="currentColor" stroke-width="1.5"/>
    <rect x="3.6582" y="11.3574" width="22.5" height="18.5" rx="1.25" stroke="currentColor" stroke-width="1.5"/>
    <rect x="16.8184" y="18.96" width="6" height="1.5" rx="0.75" fill="currentColor"/>
    <path d="M17.1964 20.3228C16.8377 20.1156 16.7148 19.657 16.9219 19.2982L19.5804 14.6935C19.7876 14.3347 20.2462 14.2118 20.605 14.4189C20.9637 14.626 21.0866 15.0847 20.8795 15.4435L18.2209 20.0482C18.0138 20.407 17.5551 20.5299 17.1964 20.3228Z" fill="currentColor"/>
    <path d="M19.128 24.9705C18.7693 24.7634 18.6464 24.3047 18.8535 23.9459L21.5121 19.3412C21.7192 18.9824 22.1779 18.8595 22.5366 19.0666C22.8953 19.2738 23.0182 19.7324 22.8111 20.0912L20.1526 24.6959C19.9454 25.0547 19.4868 25.1776 19.128 24.9705Z" fill="currentColor"/>
    <path d="M7.17786 7.29311L3.99032 11.7697" stroke="currentColor" stroke-width="1.5"/>
    <path d="M30.047 23.2772L25.9449 29.2932" stroke="currentColor" stroke-width="1.5"/>
</svg>
