<svg id="icon" width="33" height="32" viewBox="0 0 33 32" fill="none"
    xmlns="http://www.w3.org/2000/svg">
    <path d="M3.87695 29.5586L31.1123 29.5586" stroke="currentColor" stroke-width="1.5"/>
    <path d="M20.7938 14.8404L13.9481 18.823" stroke="currentColor" stroke-width="1.5"/>
    <path d="M21.491 14.8384L28.3628 18.7757" stroke="currentColor" stroke-width="1.5"/>
    <path d="M21.143 14.2314L21.1168 6.31155" stroke="currentColor" stroke-width="1.5"/>
    <path d="M6.39258 9.03906C6.39258 9.03906 14.522 9.03871 14.5458 9.03801C15.7879 9.00154 16.7832 8.01911 16.7832 6.8125C16.7832 5.5828 15.7494 4.58594 14.4742 4.58594" stroke="currentColor" stroke-width="1.5" stroke-linecap="round"/>
    <path d="M6.39258 12.0078C6.39258 12.0078 10.8614 12.008 10.875 12.0085C11.8314 12.0078 12.3301 12.6878 12.3301 13.4922C12.3301 14.312 11.9474 14.9766 10.8341 14.9766" stroke="currentColor" stroke-width="1.5" stroke-linecap="round"/>
    <path d="M4.9082 6.07031H11.5879" stroke="currentColor" stroke-width="1.5" stroke-linecap="round"/>
    <path d="M21.2207 29.3719L21.2207 16.832" stroke="currentColor" stroke-width="1.5"/>
    <circle cx="21.1404" cy="14.7791" r="0.966553" fill="white"/>
</svg>
